<svg id="svg" version="1.1" xmlns="http://www.w3.org/2000/svg" xmlns:xlink="http://www.w3.org/1999/xlink" width="400" height="264.10635155096014" viewBox="0, 0, 400,264.10635155096014"><g id="svgg"><path id="path0" d="M196.565 23.778 L 196.565 35.139 207.794 35.139 L 219.022 35.139 219.022 23.778 L 219.022 12.417 207.794 12.417 L 196.565 12.417 196.565 23.778 M200.201 23.844 L 200.132 33.421 199.273 33.504 L 198.415 33.587 198.415 23.927 L 198.415 14.267 199.343 14.267 L 200.271 14.267 200.201 23.844 M203.699 23.926 L 203.699 33.585 202.708 33.503 L 201.717 33.421 201.648 24.176 C 201.569 13.751,201.511 14.267,202.766 14.267 L 203.699 14.267 203.699 23.926 M207.133 23.926 L 207.133 33.585 206.143 33.503 L 205.152 33.421 205.082 24.176 C 205.004 13.751,204.946 14.267,206.200 14.267 L 207.133 14.267 207.133 23.926 M210.568 23.926 L 210.568 33.585 209.577 33.503 L 208.587 33.421 208.517 24.176 C 208.439 13.751,208.380 14.267,209.635 14.267 L 210.568 14.267 210.568 23.926 M214.003 23.910 L 214.003 33.554 213.078 33.554 L 212.153 33.554 212.153 23.910 L 212.153 14.267 213.078 14.267 L 214.003 14.267 214.003 23.910 M217.437 23.910 L 217.437 33.554 216.541 33.554 C 215.293 33.554,215.324 33.799,215.324 23.668 C 215.324 13.878,215.273 14.267,216.557 14.267 L 217.437 14.267 217.437 23.910 M170.145 50.066 L 170.145 61.295 181.506 61.295 L 192.867 61.295 192.867 50.066 L 192.867 38.838 181.506 38.838 L 170.145 38.838 170.145 50.066 M174.108 50.198 L 174.108 59.709 173.052 59.709 L 171.995 59.709 171.995 50.198 L 171.995 40.687 173.052 40.687 L 174.108 40.687 174.108 50.198 M177.411 50.198 L 177.411 59.577 176.420 59.659 L 175.429 59.741 175.429 50.198 L 175.429 40.655 176.420 40.737 L 177.411 40.819 177.411 50.198 M180.978 50.198 L 180.978 59.709 179.921 59.709 L 178.864 59.709 178.864 50.198 L 178.864 40.687 179.921 40.687 L 180.978 40.687 180.978 50.198 M184.412 50.198 L 184.412 59.709 183.355 59.709 L 182.299 59.709 182.299 50.198 L 182.299 40.687 183.355 40.687 L 184.412 40.687 184.412 50.198 M187.847 50.198 L 187.847 59.709 186.790 59.709 L 185.733 59.709 185.733 50.198 L 185.733 40.687 186.790 40.687 L 187.847 40.687 187.847 50.198 M191.281 50.214 L 191.281 59.741 190.291 59.659 L 189.300 59.577 189.230 50.464 C 189.152 40.184,189.094 40.687,190.348 40.687 L 191.281 40.687 191.281 50.214 M293.200 42.074 C 285.995 51.537,287.353 71.626,295.749 79.778 C 297.249 81.235,297.281 81.042,295.310 82.462 C 291.032 85.545,285.852 87.902,279.439 89.682 C 271.058 92.008,280.722 91.790,182.258 91.874 L 94.900 91.950 94.704 95.050 C 94.467 98.819,94.749 107.362,95.115 107.486 C 95.259 107.534,95.376 107.753,95.376 107.973 C 95.376 108.406,97.801 108.340,102.906 107.769 C 108.230 107.174,113.620 105.497,116.666 103.490 L 118.536 102.257 119.836 103.479 C 126.134 109.398,150.282 110.934,164.768 106.337 C 165.906 105.976,166.936 105.680,167.059 105.680 C 168.454 105.680,173.093 103.030,174.429 101.470 L 175.337 100.408 176.242 101.354 C 185.887 111.431,213.609 111.502,224.124 101.475 C 225.326 100.328,225.409 100.292,225.684 100.793 C 229.734 108.174,262.034 111.809,275.416 106.390 C 278.282 105.229,278.919 104.851,280.722 103.236 C 282.026 102.069,282.202 102.045,283.307 102.884 C 283.769 103.235,284.653 103.724,285.271 103.970 C 285.888 104.216,286.394 104.518,286.394 104.643 C 286.394 104.895,290.995 106.395,292.536 106.644 C 293.081 106.732,293.527 106.908,293.527 107.035 C 293.527 107.162,293.705 107.266,293.923 107.266 C 294.141 107.266,294.320 107.092,294.320 106.880 C 294.320 106.667,294.539 106.281,294.808 106.021 C 295.076 105.761,295.698 104.657,296.189 103.567 C 296.681 102.477,297.233 101.466,297.416 101.321 C 297.599 101.176,298.178 99.987,298.704 98.679 C 299.229 97.371,299.760 96.238,299.883 96.161 C 300.142 95.999,301.715 92.227,301.716 91.763 C 301.717 91.591,301.873 91.294,302.064 91.102 C 302.255 90.910,302.760 89.762,303.187 88.551 L 303.963 86.350 310.700 86.286 C 317.334 86.222,323.569 85.442,324.157 84.601 C 324.239 84.483,324.841 84.233,325.495 84.046 C 326.720 83.695,329.752 82.432,329.987 82.174 C 330.181 81.962,332.117 80.762,332.957 80.334 C 333.356 80.131,333.864 79.688,334.086 79.349 C 334.309 79.009,334.636 78.733,334.815 78.734 C 335.202 78.737,338.705 75.040,338.705 74.628 C 338.705 74.470,339.042 73.991,339.453 73.564 C 340.043 72.952,341.083 71.268,341.083 70.926 C 341.083 70.891,340.578 70.661,339.961 70.414 C 339.344 70.167,338.770 69.853,338.685 69.715 C 338.480 69.384,333.515 67.964,331.766 67.737 C 331.005 67.638,330.306 67.438,330.211 67.293 C 329.978 66.935,321.010 66.938,320.780 67.296 C 320.685 67.443,319.894 67.650,319.022 67.755 C 316.258 68.087,311.493 69.348,311.493 69.747 C 311.493 69.870,311.106 70.049,310.634 70.144 C 310.162 70.239,309.585 70.370,309.352 70.435 C 308.985 70.537,308.909 70.077,308.770 66.914 C 308.392 58.279,304.849 51.321,296.994 43.791 C 293.941 40.865,294.075 40.925,293.200 42.074 M143.989 76.486 L 143.989 87.715 155.350 87.715 L 166.711 87.715 166.711 76.486 L 166.711 65.258 155.350 65.258 L 143.989 65.258 143.989 76.486 M196.565 76.486 L 196.565 87.715 207.794 87.715 L 219.022 87.715 219.022 76.486 L 219.022 65.258 207.794 65.258 L 196.565 65.258 196.565 76.486 M147.625 76.420 L 147.556 85.997 146.697 86.080 L 145.839 86.163 145.839 76.503 L 145.839 66.843 146.767 66.843 L 147.695 66.843 147.625 76.420 M151.060 76.420 L 150.991 85.997 150.227 86.085 C 149.040 86.220,149.018 86.038,149.013 76.332 C 149.009 66.446,148.957 66.843,150.245 66.843 L 151.129 66.843 151.060 76.420 M154.557 76.486 L 154.557 86.129 153.633 86.129 L 152.708 86.129 152.708 76.486 L 152.708 66.843 153.633 66.843 L 154.557 66.843 154.557 76.486 M158.198 75.958 C 158.284 86.478,158.319 86.189,156.992 86.079 L 156.011 85.997 155.941 76.752 C 155.862 66.250,155.798 66.782,157.131 66.893 L 158.124 66.975 158.198 75.958 M161.427 76.486 L 161.427 86.129 160.502 86.129 L 159.577 86.129 159.577 76.486 L 159.577 66.843 160.502 66.843 L 161.427 66.843 161.427 76.486 M164.861 76.486 L 164.861 86.129 163.937 86.129 L 163.012 86.129 163.012 76.486 L 163.012 66.843 163.937 66.843 L 164.861 66.843 164.861 76.486 M200.201 76.420 L 200.132 85.997 199.273 86.080 L 198.415 86.163 198.415 76.503 L 198.415 66.843 199.343 66.843 L 200.271 66.843 200.201 76.420 M203.636 76.420 L 203.567 85.997 202.803 86.085 C 201.616 86.220,201.594 86.038,201.589 76.332 C 201.585 66.446,201.533 66.843,202.821 66.843 L 203.705 66.843 203.636 76.420 M207.133 76.486 L 207.133 86.129 206.237 86.129 C 204.990 86.129,205.020 86.375,205.020 76.244 C 205.020 66.454,204.969 66.843,206.253 66.843 L 207.133 66.843 207.133 76.486 M210.505 76.420 L 210.436 85.997 209.511 85.997 L 208.587 85.997 208.517 76.752 C 208.439 66.325,208.380 66.843,209.638 66.843 L 210.575 66.843 210.505 76.420 M214.003 76.486 L 214.003 86.129 213.078 86.129 L 212.153 86.129 212.153 76.486 L 212.153 66.843 213.078 66.843 L 214.003 66.843 214.003 76.486 M217.437 76.486 L 217.437 86.129 216.541 86.129 C 215.293 86.129,215.324 86.375,215.324 76.244 C 215.324 66.454,215.273 66.843,216.557 66.843 L 217.437 66.843 217.437 76.486 M158.857 131.044 C 158.857 131.697,158.908 131.965,158.971 131.638 C 159.034 131.311,159.034 130.776,158.971 130.449 C 158.908 130.122,158.857 130.390,158.857 131.044 M153.255 141.744 C 153.255 141.889,153.425 142.305,153.633 142.668 C 153.840 143.032,154.010 143.210,154.010 143.065 C 154.010 142.919,153.840 142.503,153.633 142.140 C 153.425 141.777,153.255 141.598,153.255 141.744 M155.482 146.367 C 155.708 146.803,155.951 147.160,156.024 147.160 C 156.097 147.160,155.972 146.803,155.746 146.367 C 155.521 145.931,155.277 145.575,155.204 145.575 C 155.132 145.575,155.257 145.931,155.482 146.367 " stroke="none" fill="#1cbdeb" fill-rule="evenodd"></path><path id="path1" d="M219.144 23.778 C 219.144 30.099,219.178 32.685,219.220 29.524 C 219.262 26.364,219.262 21.192,219.220 18.032 C 219.178 14.871,219.144 17.457,219.144 23.778 M201.706 14.599 C 201.635 14.781,201.610 19.091,201.648 24.176 L 201.717 33.421 202.774 33.453 L 203.831 33.484 202.834 33.371 L 201.837 33.257 201.909 23.762 C 201.949 18.539,201.948 14.267,201.907 14.267 C 201.866 14.267,201.776 14.416,201.706 14.599 M205.140 14.599 C 205.070 14.781,205.044 19.091,205.082 24.176 L 205.152 33.421 206.209 33.453 L 207.266 33.484 206.268 33.371 L 205.271 33.257 205.344 23.762 C 205.383 18.539,205.383 14.267,205.342 14.267 C 205.301 14.267,205.210 14.416,205.140 14.599 M208.575 14.599 C 208.505 14.781,208.479 19.091,208.517 24.176 L 208.587 33.421 209.643 33.453 L 210.700 33.484 209.703 33.371 L 208.706 33.257 208.778 23.762 C 208.818 18.539,208.817 14.267,208.776 14.267 C 208.735 14.267,208.645 14.416,208.575 14.599 M215.444 14.599 C 215.374 14.781,215.348 19.032,215.386 24.044 L 215.456 33.157 215.588 23.712 C 215.661 18.517,215.686 14.267,215.646 14.267 C 215.605 14.267,215.514 14.416,215.444 14.599 M198.745 33.471 C 198.999 33.538,199.415 33.538,199.670 33.471 C 199.924 33.405,199.716 33.351,199.207 33.351 C 198.699 33.351,198.491 33.405,198.745 33.471 M212.619 33.476 C 212.947 33.539,213.423 33.537,213.675 33.471 C 213.928 33.405,213.659 33.353,213.078 33.356 C 212.497 33.359,212.290 33.413,212.619 33.476 M216.053 33.476 C 216.382 33.539,216.857 33.537,217.110 33.471 C 217.363 33.405,217.094 33.353,216.513 33.356 C 215.931 33.359,215.725 33.413,216.053 33.476 M143.989 50.201 L 143.989 61.564 155.284 61.496 L 166.579 61.427 166.647 50.132 L 166.716 38.838 155.353 38.838 L 143.989 38.838 143.989 50.201 M196.565 50.201 L 196.565 61.564 207.860 61.496 L 219.155 61.427 219.223 50.132 L 219.292 38.838 207.929 38.838 L 196.565 38.838 196.565 50.201 M147.688 50.198 L 147.688 59.709 146.764 59.709 L 145.839 59.709 145.839 50.198 L 145.839 40.687 146.764 40.687 L 147.688 40.687 147.688 50.198 M151.123 50.198 L 151.123 59.709 150.198 59.709 L 149.273 59.709 149.273 50.198 L 149.273 40.687 150.198 40.687 L 151.123 40.687 151.123 50.198 M154.557 50.198 L 154.557 59.709 153.633 59.709 L 152.708 59.709 152.708 50.198 L 152.708 40.687 153.633 40.687 L 154.557 40.687 154.557 50.198 M157.992 50.198 L 157.992 59.709 157.096 59.709 C 155.849 59.709,155.878 59.945,155.878 49.956 C 155.878 40.307,155.828 40.687,157.111 40.687 L 157.992 40.687 157.992 50.198 M161.427 50.198 L 161.427 59.709 160.502 59.709 L 159.577 59.709 159.577 50.198 L 159.577 40.687 160.502 40.687 L 161.427 40.687 161.427 50.198 M164.861 50.198 L 164.861 59.709 163.937 59.709 L 163.012 59.709 163.012 50.198 L 163.012 40.687 163.937 40.687 L 164.861 40.687 164.861 50.198 M172.114 50.198 C 172.114 55.502,172.149 57.672,172.192 55.020 C 172.236 52.368,172.236 48.028,172.192 45.376 C 172.149 42.725,172.114 44.894,172.114 50.198 M173.964 50.198 C 173.964 55.502,173.999 57.672,174.042 55.020 C 174.085 52.368,174.085 48.028,174.042 45.376 C 173.999 42.725,173.964 44.894,173.964 50.198 M187.702 50.198 C 187.702 55.502,187.737 57.672,187.780 55.020 C 187.823 52.368,187.823 48.028,187.780 45.376 C 187.737 42.725,187.702 44.894,187.702 50.198 M200.264 50.198 L 200.264 59.709 199.339 59.709 L 198.415 59.709 198.415 50.198 L 198.415 40.687 199.339 40.687 L 200.264 40.687 200.264 50.198 M203.699 50.198 L 203.699 59.709 202.774 59.709 L 201.849 59.709 201.849 50.198 L 201.849 40.687 202.774 40.687 L 203.699 40.687 203.699 50.198 M207.133 50.198 L 207.133 59.709 206.209 59.709 L 205.284 59.709 205.284 50.198 L 205.284 40.687 206.209 40.687 L 207.133 40.687 207.133 50.198 M210.568 50.198 L 210.568 59.709 209.672 59.709 C 208.425 59.709,208.454 59.945,208.454 49.956 C 208.454 40.307,208.404 40.687,209.687 40.687 L 210.568 40.687 210.568 50.198 M214.003 50.198 L 214.003 59.709 213.078 59.709 L 212.153 59.709 212.153 50.198 L 212.153 40.687 213.078 40.687 L 214.003 40.687 214.003 50.198 M217.437 50.198 L 217.437 59.709 216.513 59.709 L 215.588 59.709 215.588 50.198 L 215.588 40.687 216.513 40.687 L 217.437 40.687 217.437 50.198 M177.398 50.198 C 177.398 55.357,177.433 57.467,177.476 54.888 C 177.520 52.308,177.520 48.088,177.476 45.509 C 177.433 42.929,177.398 45.040,177.398 50.198 M189.287 50.198 C 189.287 55.357,189.322 57.467,189.366 54.888 C 189.409 52.308,189.409 48.088,189.366 45.509 C 189.322 42.929,189.287 45.040,189.287 50.198 M298.007 44.716 C 299.102 45.882,299.339 46.092,299.339 45.894 C 299.339 45.851,298.775 45.287,298.085 44.639 L 296.830 43.461 298.007 44.716 M175.760 61.492 C 178.920 61.535,184.092 61.535,187.252 61.492 C 190.413 61.450,187.827 61.416,181.506 61.416 C 175.185 61.416,172.599 61.450,175.760 61.492 M117.834 76.354 L 117.834 87.715 129.062 87.715 L 140.291 87.715 140.291 76.354 L 140.291 64.993 129.062 64.993 L 117.834 64.993 117.834 76.354 M149.604 65.191 C 152.764 65.233,157.936 65.233,161.096 65.191 C 164.257 65.149,161.671 65.115,155.350 65.115 C 149.029 65.115,146.443 65.149,149.604 65.191 M170.321 65.170 C 170.225 65.266,170.145 70.379,170.145 76.530 L 170.145 87.715 181.506 87.715 L 192.867 87.715 192.867 76.354 L 192.867 64.993 181.682 64.993 C 175.531 64.993,170.418 65.073,170.321 65.170 M207.725 65.190 L 219.017 65.263 219.090 76.489 L 219.163 87.715 219.159 76.420 L 219.155 65.125 207.794 65.121 L 196.433 65.117 207.725 65.190 M222.897 65.170 C 222.801 65.266,222.721 70.379,222.721 76.530 L 222.721 87.715 234.082 87.715 L 245.443 87.715 245.443 76.354 L 245.443 64.993 234.258 64.993 C 228.107 64.993,222.994 65.073,222.897 65.170 M121.470 76.336 C 121.543 86.262,121.561 86.116,120.306 86.125 C 119.439 86.132,119.419 85.910,119.419 76.244 C 119.419 66.562,119.392 66.778,120.598 66.896 L 121.400 66.975 121.470 76.336 M124.703 76.338 C 124.703 86.308,124.701 86.319,123.499 86.017 L 122.853 85.855 122.853 76.349 L 122.853 66.843 123.778 66.843 L 124.703 66.843 124.703 76.338 M128.343 75.958 C 128.427 86.161,128.430 86.129,127.368 86.129 C 126.280 86.129,126.288 86.205,126.288 76.244 C 126.288 66.562,126.261 66.778,127.467 66.896 L 128.269 66.975 128.343 75.958 M131.836 76.349 L 131.836 85.855 131.191 86.017 C 129.988 86.319,129.987 86.308,129.987 76.338 L 129.987 66.843 130.911 66.843 L 131.836 66.843 131.836 76.349 M135.271 76.362 C 135.271 86.710,135.318 86.397,133.817 86.021 L 133.157 85.855 133.157 76.525 C 133.157 66.435,133.105 66.843,134.390 66.843 L 135.271 66.843 135.271 76.362 M138.643 76.191 C 138.716 85.948,138.695 86.129,137.484 86.129 L 136.856 86.129 136.856 76.469 L 136.856 66.809 137.715 66.892 L 138.573 66.975 138.643 76.191 M174.046 76.191 C 174.119 85.912,174.094 86.129,172.915 86.129 C 172.010 86.129,171.995 85.966,171.995 76.244 C 171.995 66.562,171.967 66.778,173.174 66.896 L 173.976 66.975 174.046 76.191 M177.279 76.338 C 177.279 86.308,177.277 86.319,176.075 86.017 L 175.429 85.855 175.429 76.349 L 175.429 66.843 176.354 66.843 L 177.279 66.843 177.279 76.338 M180.919 75.958 C 181.004 86.322,181.018 86.193,179.846 86.079 L 178.996 85.997 178.927 76.404 L 178.857 66.811 179.851 66.893 L 180.845 66.975 180.919 75.958 M184.349 76.253 C 184.425 86.364,184.422 86.388,182.962 86.022 L 182.299 85.855 182.299 76.525 C 182.299 66.547,182.270 66.778,183.478 66.896 L 184.280 66.975 184.349 76.253 M187.788 75.958 C 187.868 85.650,187.834 86.129,187.071 86.129 C 185.678 86.129,185.733 86.529,185.733 76.502 C 185.733 66.549,185.705 66.778,186.913 66.896 L 187.715 66.975 187.788 75.958 M191.219 76.191 C 191.292 85.948,191.271 86.129,190.060 86.129 L 189.432 86.129 189.432 76.469 L 189.432 66.809 190.291 66.892 L 191.149 66.975 191.219 76.191 M226.622 76.191 C 226.695 85.912,226.670 86.129,225.491 86.129 C 224.586 86.129,224.571 85.966,224.571 76.244 C 224.571 66.562,224.543 66.778,225.750 66.896 L 226.552 66.975 226.622 76.191 M229.792 76.420 L 229.723 85.997 228.930 85.997 L 228.137 85.997 228.068 76.420 L 227.999 66.843 228.930 66.843 L 229.861 66.843 229.792 76.420 M233.491 76.191 C 233.565 86.062,233.545 86.227,232.255 86.077 L 231.572 85.997 231.502 76.752 C 231.424 66.373,231.381 66.778,232.561 66.892 L 233.421 66.975 233.491 76.191 M236.925 76.253 C 237.001 86.364,236.998 86.388,235.538 86.022 L 234.875 85.855 234.875 76.525 C 234.875 66.547,234.846 66.778,236.054 66.896 L 236.856 66.975 236.925 76.253 M240.364 75.958 C 240.449 86.322,240.463 86.193,239.291 86.079 L 238.441 85.997 238.372 76.404 L 238.302 66.811 239.297 66.893 L 240.291 66.975 240.364 75.958 M243.795 76.191 C 243.868 85.912,243.843 86.129,242.664 86.129 C 241.759 86.129,241.744 85.966,241.744 76.244 C 241.744 66.562,241.716 66.778,242.923 66.896 L 243.725 66.975 243.795 76.191 M322.919 67.025 C 323.174 67.091,323.590 67.091,323.844 67.025 C 324.098 66.958,323.890 66.904,323.382 66.904 C 322.873 66.904,322.665 66.958,322.919 67.025 M327.147 67.025 C 327.401 67.091,327.817 67.091,328.071 67.025 C 328.326 66.958,328.118 66.904,327.609 66.904 C 327.100 66.904,326.892 66.958,327.147 67.025 M149.128 76.354 C 149.128 81.513,149.164 83.623,149.207 81.044 C 149.250 78.464,149.250 74.244,149.207 71.664 C 149.164 69.085,149.128 71.196,149.128 76.354 M156.006 76.618 L 156.011 85.997 157.004 86.025 L 157.997 86.053 157.073 85.943 L 156.149 85.834 156.075 76.536 L 156.001 67.239 156.006 76.618 M158.111 76.354 C 158.111 81.513,158.147 83.623,158.190 81.044 C 158.233 78.464,158.233 74.244,158.190 71.664 C 158.147 69.085,158.111 71.196,158.111 76.354 M201.704 76.354 C 201.704 81.513,201.740 83.623,201.783 81.044 C 201.826 78.464,201.826 74.244,201.783 71.664 C 201.740 69.085,201.704 71.196,201.704 76.354 M205.139 76.354 C 205.139 81.513,205.174 83.623,205.218 81.044 C 205.261 78.464,205.261 74.244,205.218 71.664 C 205.174 69.085,205.139 71.196,205.139 76.354 M208.582 76.618 L 208.587 85.997 209.379 86.022 C 210.120 86.045,210.125 86.040,209.448 85.939 L 208.725 85.832 208.651 76.536 L 208.577 67.239 208.582 76.618 M215.443 76.354 C 215.443 81.513,215.478 83.623,215.521 81.044 C 215.565 78.464,215.565 74.244,215.521 71.664 C 215.478 69.085,215.443 71.196,215.443 76.354 M317.740 67.637 C 316.454 67.908,315.325 68.215,315.231 68.318 C 315.136 68.421,315.357 68.426,315.720 68.328 C 316.083 68.230,317.361 68.013,318.560 67.845 C 319.759 67.677,320.740 67.442,320.740 67.323 C 320.740 67.034,320.469 67.062,317.740 67.637 M330.251 67.378 C 330.251 67.519,330.592 67.635,331.010 67.635 C 331.644 67.635,335.309 68.476,337.252 69.068 C 337.543 69.156,337.365 69.035,336.856 68.800 C 335.158 68.012,330.251 66.956,330.251 67.378 M310.304 69.891 C 309.868 70.090,309.690 70.257,309.908 70.262 C 310.582 70.276,311.493 69.963,311.493 69.718 C 311.493 69.416,311.270 69.448,310.304 69.891 M338.705 69.713 C 338.705 69.839,339.240 70.146,339.894 70.395 C 341.070 70.844,341.333 71.149,340.819 71.466 C 340.674 71.556,340.555 71.768,340.555 71.937 C 340.555 72.106,340.740 71.980,340.966 71.657 C 341.474 70.932,341.327 70.677,340.019 70.009 C 338.868 69.422,338.705 69.385,338.705 69.713 M339.377 73.643 C 339.007 74.041,338.705 74.478,338.705 74.613 C 338.705 74.749,338.497 75.104,338.243 75.404 C 337.799 75.927,337.800 75.934,338.265 75.572 C 338.781 75.171,340.408 72.919,340.182 72.919 C 340.108 72.919,339.746 73.245,339.377 73.643 M336.490 77.307 C 335.892 77.976,335.143 78.624,334.825 78.747 C 334.506 78.870,334.106 79.232,333.935 79.552 L 333.624 80.132 334.382 79.585 C 335.374 78.867,338.092 76.090,337.802 76.090 C 337.678 76.090,337.087 76.637,336.490 77.307 M295.244 79.524 C 295.812 80.106,296.336 80.581,296.408 80.581 C 296.481 80.581,296.076 80.106,295.509 79.524 C 294.941 78.943,294.417 78.468,294.345 78.468 C 294.272 78.468,294.677 78.943,295.244 79.524 M332.232 80.738 C 331.651 81.094,330.908 81.521,330.581 81.686 C 330.254 81.852,329.987 82.090,329.987 82.217 C 329.987 82.487,331.793 81.496,332.831 80.657 C 333.768 79.898,333.554 79.927,332.232 80.738 M328.402 82.959 C 327.893 83.237,327.596 83.465,327.741 83.465 C 327.886 83.465,328.421 83.237,328.930 82.959 C 329.439 82.681,329.736 82.453,329.590 82.453 C 329.445 82.453,328.910 82.681,328.402 82.959 M325.561 83.977 C 324.799 84.213,324.174 84.504,324.174 84.625 C 324.174 84.884,324.958 84.669,326.420 84.009 C 327.719 83.423,327.397 83.411,325.561 83.977 M146.169 86.047 C 146.423 86.114,146.839 86.114,147.094 86.047 C 147.348 85.981,147.140 85.927,146.631 85.927 C 146.123 85.927,145.915 85.981,146.169 86.047 M149.604 86.047 C 149.858 86.114,150.274 86.114,150.528 86.047 C 150.783 85.981,150.575 85.927,150.066 85.927 C 149.557 85.927,149.349 85.981,149.604 86.047 M153.173 86.052 C 153.502 86.115,153.978 86.113,154.230 86.047 C 154.483 85.981,154.214 85.929,153.633 85.932 C 153.052 85.935,152.845 85.989,153.173 86.052 M160.043 86.052 C 160.371 86.115,160.847 86.113,161.100 86.047 C 161.352 85.981,161.083 85.929,160.502 85.932 C 159.921 85.935,159.714 85.989,160.043 86.052 M163.477 86.052 C 163.806 86.115,164.282 86.113,164.534 86.047 C 164.787 85.981,164.518 85.929,163.937 85.932 C 163.355 85.935,163.149 85.989,163.477 86.052 M198.745 86.047 C 198.999 86.114,199.415 86.114,199.670 86.047 C 199.924 85.981,199.716 85.927,199.207 85.927 C 198.699 85.927,198.491 85.981,198.745 86.047 M202.180 86.047 C 202.434 86.114,202.850 86.114,203.104 86.047 C 203.359 85.981,203.151 85.927,202.642 85.927 C 202.133 85.927,201.925 85.981,202.180 86.047 M205.749 86.052 C 206.078 86.115,206.554 86.113,206.806 86.047 C 207.059 85.981,206.790 85.929,206.209 85.932 C 205.627 85.935,205.421 85.989,205.749 86.052 M212.619 86.052 C 212.947 86.115,213.423 86.113,213.675 86.047 C 213.928 85.981,213.659 85.929,213.078 85.932 C 212.497 85.935,212.290 85.989,212.619 86.052 M216.053 86.052 C 216.382 86.115,216.857 86.113,217.110 86.047 C 217.363 85.981,217.094 85.929,216.513 85.932 C 215.931 85.935,215.725 85.989,216.053 86.052 M303.805 86.707 C 303.674 86.951,303.571 87.308,303.576 87.499 C 303.581 87.690,303.743 87.562,303.937 87.213 L 304.288 86.580 309.806 86.608 C 312.841 86.623,315.859 86.552,316.513 86.449 C 317.166 86.346,314.628 86.262,310.872 86.262 C 304.741 86.262,304.019 86.307,303.805 86.707 M301.654 92.008 C 301.440 92.625,301.181 93.369,301.078 93.659 C 300.816 94.401,301.706 92.827,302.150 91.762 C 302.352 91.280,302.411 90.885,302.281 90.885 C 302.151 90.885,301.869 91.390,301.654 92.008 M299.138 97.556 C 298.216 99.927,298.223 100.057,299.180 98.283 C 300.167 96.453,300.264 96.169,299.905 96.169 C 299.779 96.169,299.434 96.793,299.138 97.556 M224.162 101.519 L 223.118 102.642 224.302 101.585 C 224.954 101.004,225.539 100.499,225.601 100.462 C 225.664 100.426,225.601 100.396,225.461 100.396 C 225.321 100.396,224.736 100.902,224.162 101.519 M297.358 101.391 C 297.045 101.621,295.574 104.644,295.709 104.780 C 295.760 104.831,296.249 104.044,296.797 103.031 C 297.795 101.182,297.846 101.032,297.358 101.391 M280.682 103.243 C 280.084 103.784,279.252 104.503,278.833 104.841 L 278.071 105.455 278.864 105.060 C 279.547 104.720,282.228 102.234,281.891 102.252 C 281.825 102.256,281.281 102.702,280.682 103.243 M282.312 102.483 C 282.758 102.905,285.940 104.888,286.170 104.888 C 286.778 104.888,286.267 104.366,285.271 103.970 C 284.653 103.724,283.769 103.235,283.307 102.884 C 282.504 102.275,281.784 101.984,282.312 102.483 M275.584 106.278 C 274.798 106.587,274.277 106.881,274.426 106.931 C 274.576 106.981,275.338 106.730,276.121 106.373 C 277.872 105.573,277.528 105.512,275.584 106.278 M294.735 106.095 C 294.351 106.479,294.156 107.266,294.445 107.266 C 294.514 107.266,294.755 106.909,294.980 106.473 C 295.436 105.591,295.358 105.472,294.735 106.095 M289.564 106.038 C 289.564 106.124,290.248 106.385,291.083 106.618 C 291.919 106.852,292.810 107.101,293.065 107.172 C 293.319 107.243,293.527 107.199,293.527 107.074 C 293.527 106.949,292.903 106.707,292.140 106.538 C 291.377 106.368,290.485 106.151,290.159 106.056 C 289.832 105.961,289.564 105.953,289.564 106.038 M94.848 107.926 C 94.848 108.144,94.967 108.322,95.112 108.322 C 95.258 108.322,95.376 108.144,95.376 107.926 C 95.376 107.708,95.258 107.530,95.112 107.530 C 94.967 107.530,94.848 107.708,94.848 107.926 M98.349 108.247 C 98.748 108.308,99.402 108.308,99.802 108.247 C 100.201 108.187,99.875 108.137,99.075 108.137 C 98.276 108.137,97.949 108.187,98.349 108.247 M135.337 108.769 C 135.591 108.835,136.007 108.835,136.262 108.769 C 136.516 108.702,136.308 108.648,135.799 108.648 C 135.291 108.648,135.083 108.702,135.337 108.769 M150.267 108.773 C 150.596 108.837,151.071 108.834,151.324 108.768 C 151.577 108.702,151.308 108.650,150.727 108.653 C 150.145 108.656,149.939 108.710,150.267 108.773 M205.614 108.769 C 205.869 108.835,206.285 108.835,206.539 108.769 C 206.793 108.702,206.585 108.648,206.077 108.648 C 205.568 108.648,205.360 108.702,205.614 108.769 M249.343 108.773 C 249.671 108.837,250.147 108.834,250.399 108.768 C 250.652 108.702,250.383 108.650,249.802 108.653 C 249.221 108.656,249.014 108.710,249.343 108.773 M264.531 108.769 C 264.785 108.835,265.201 108.835,265.456 108.769 C 265.710 108.702,265.502 108.648,264.993 108.648 C 264.485 108.648,264.277 108.702,264.531 108.769 M138.111 109.042 C 138.583 109.100,139.356 109.100,139.828 109.042 C 140.301 108.983,139.914 108.935,138.970 108.935 C 138.025 108.935,137.639 108.983,138.111 109.042 M146.295 109.041 C 146.764 109.100,147.597 109.101,148.145 109.044 C 148.693 108.986,148.309 108.939,147.292 108.937 C 146.275 108.936,145.826 108.983,146.295 109.041 M196.631 109.040 C 197.031 109.100,197.685 109.100,198.085 109.040 C 198.484 108.979,198.157 108.930,197.358 108.930 C 196.559 108.930,196.232 108.979,196.631 109.040 M202.444 109.040 C 202.843 109.100,203.497 109.100,203.897 109.040 C 204.297 108.979,203.970 108.930,203.170 108.930 C 202.371 108.930,202.044 108.979,202.444 109.040 M252.510 109.042 C 252.982 109.100,253.755 109.100,254.227 109.042 C 254.699 108.983,254.313 108.935,253.369 108.935 C 252.424 108.935,252.038 108.983,252.510 109.042 M260.700 109.042 C 261.172 109.100,261.945 109.100,262.417 109.042 C 262.890 108.983,262.503 108.935,261.559 108.935 C 260.614 108.935,260.228 108.983,260.700 109.042 M95.752 112.616 C 96.679 117.139,97.343 119.961,97.631 120.608 C 97.825 121.044,98.344 122.491,98.783 123.825 C 100.072 127.742,103.195 133.859,106.044 138.045 L 107.662 140.423 110.964 140.592 C 116.478 140.874,132.022 140.851,135.535 140.555 C 139.902 140.188,145.342 139.497,145.838 139.246 C 146.057 139.136,147.008 138.903,147.952 138.730 C 148.897 138.557,151.015 138.049,152.659 137.601 C 155.970 136.699,156.716 136.774,157.205 138.060 C 157.763 139.528,157.032 140.534,155.013 141.079 C 153.415 141.511,153.387 141.568,154.047 143.107 C 158.251 152.925,167.407 162.273,178.732 168.312 C 180.185 169.086,181.405 169.792,181.444 169.879 C 181.483 169.966,182.315 170.000,183.293 169.954 C 185.380 169.855,192.438 169.351,193.395 169.233 C 204.934 167.800,215.183 165.848,221.102 163.956 C 222.211 163.602,224.247 162.956,225.627 162.520 C 230.582 160.958,237.621 158.182,241.480 156.270 C 242.279 155.873,243.527 155.264,244.254 154.914 C 247.900 153.162,255.721 148.550,258.388 146.579 C 261.177 144.518,265.553 141.238,266.314 140.638 C 269.757 137.925,278.711 129.197,280.809 126.509 C 281.338 125.832,282.721 124.097,283.884 122.654 C 285.794 120.282,286.553 119.276,289.175 115.640 C 289.615 115.030,290.304 113.966,290.706 113.276 L 291.436 112.021 193.533 112.021 L 95.631 112.021 95.752 112.616 M167.971 125.226 C 172.837 127.435,172.988 134.336,168.223 136.711 C 161.613 140.005,155.608 131.476,160.941 126.368 C 162.716 124.668,165.680 124.187,167.971 125.226 " stroke="none" fill="#049ac5" fill-rule="evenodd"></path><path id="path2" d="M191.810 21.004 L 191.810 34.082 165.522 34.082 L 139.234 34.082 139.234 47.292 L 139.234 60.502 126.156 60.502 L 113.078 60.502 113.078 73.976 L 113.078 87.450 101.882 87.450 L 90.687 87.450 90.522 88.276 C 90.431 88.730,90.357 89.674,90.357 90.374 C 90.357 91.074,90.264 91.704,90.151 91.774 C 89.596 92.117,89.595 106.737,90.150 106.737 C 90.264 106.737,90.357 106.987,90.357 107.291 C 90.357 107.895,87.274 107.813,86.886 107.200 C 86.793 107.053,86.593 107.010,86.441 107.104 C 86.290 107.198,86.091 107.153,86.000 107.006 C 85.909 106.858,85.619 106.737,85.357 106.737 C 84.705 106.737,79.473 104.963,79.282 104.677 C 79.197 104.551,78.395 104.060,77.500 103.586 C 76.604 103.112,74.980 101.904,73.891 100.900 C 71.502 98.699,71.568 98.708,71.766 100.604 C 71.996 102.804,71.205 104.554,69.385 105.872 C 68.641 106.411,67.972 106.915,67.900 106.993 C 67.454 107.467,62.280 109.379,61.441 109.379 C 61.239 109.379,61.035 109.498,60.986 109.643 C 60.938 109.788,59.323 110.230,57.398 110.624 C 50.960 111.944,51.793 112.021,72.391 112.021 L 90.885 112.021 90.885 112.582 C 90.885 113.461,92.205 119.759,92.454 120.067 C 92.576 120.219,92.999 121.532,93.392 122.985 C 93.785 124.439,94.495 126.460,94.970 127.477 C 95.444 128.494,95.923 129.624,96.035 129.987 C 96.281 130.789,99.593 137.199,99.857 137.384 C 99.960 137.457,100.546 138.378,101.157 139.432 C 101.769 140.485,102.386 141.347,102.528 141.347 C 102.671 141.347,102.893 141.615,103.022 141.942 C 103.255 142.531,106.276 146.365,108.058 148.332 C 111.743 152.401,118.039 157.940,120.125 158.949 C 120.586 159.172,121.026 159.518,121.103 159.718 C 121.180 159.918,121.753 160.339,122.378 160.652 C 123.003 160.966,123.890 161.504,124.349 161.849 C 124.808 162.193,126.054 162.911,127.116 163.444 C 128.179 163.978,129.209 164.574,129.405 164.770 C 129.600 164.965,129.872 165.125,130.008 165.125 C 130.144 165.125,131.592 165.767,133.225 166.551 C 134.859 167.336,137.266 168.307,138.573 168.710 C 139.881 169.114,141.011 169.524,141.083 169.621 C 141.242 169.834,144.199 170.719,146.764 171.320 C 147.781 171.559,148.851 171.859,149.141 171.987 C 150.302 172.501,157.313 173.661,161.295 173.999 C 162.457 174.098,163.575 174.311,163.779 174.474 C 164.343 174.923,188.688 174.889,188.838 174.439 C 188.908 174.228,189.470 174.108,190.386 174.108 C 193.372 174.108,206.678 172.501,207.794 172.006 C 208.085 171.877,210.581 171.332,213.342 170.794 C 216.103 170.257,218.421 169.738,218.494 169.640 C 218.567 169.543,220.401 169.018,222.570 168.473 C 224.740 167.929,226.880 167.311,227.326 167.101 C 227.772 166.891,229.505 166.288,231.176 165.761 C 232.847 165.234,234.273 164.722,234.346 164.624 C 234.419 164.525,235.845 163.927,237.517 163.294 C 239.188 162.661,240.614 162.069,240.687 161.978 C 240.760 161.887,241.889 161.355,243.197 160.795 C 244.505 160.235,245.634 159.686,245.707 159.576 C 245.779 159.465,246.968 158.822,248.349 158.146 C 251.320 156.692,254.560 154.909,255.636 154.137 C 256.060 153.833,257.031 153.249,257.794 152.840 C 258.557 152.431,259.181 152.001,259.181 151.886 C 259.181 151.770,259.567 151.492,260.040 151.267 C 260.847 150.882,264.582 148.221,265.581 147.320 C 265.832 147.094,266.664 146.469,267.431 145.931 C 268.197 145.394,269.149 144.648,269.547 144.274 C 269.944 143.899,270.765 143.177,271.371 142.668 C 274.530 140.017,280.037 134.649,282.756 131.570 C 283.589 130.626,284.617 129.498,285.039 129.062 C 285.462 128.626,286.090 127.853,286.434 127.345 C 286.778 126.836,287.356 126.107,287.718 125.724 C 288.079 125.341,288.732 124.525,289.168 123.909 C 289.604 123.294,290.460 122.121,291.070 121.303 C 291.680 120.485,292.185 119.679,292.193 119.513 C 292.200 119.347,292.374 119.147,292.580 119.068 C 292.785 118.989,293.393 118.174,293.930 117.256 C 294.467 116.339,294.993 115.528,295.100 115.456 C 295.207 115.383,295.699 114.582,296.194 113.676 L 297.094 112.027 321.863 112.024 C 349.297 112.021,349.853 111.983,343.131 110.596 C 341.205 110.199,339.590 109.762,339.542 109.626 C 339.494 109.490,339.256 109.377,339.014 109.374 C 338.341 109.366,334.227 107.865,333.449 107.343 C 333.071 107.090,332.448 106.701,332.065 106.479 C 329.639 105.076,328.505 103.063,328.761 100.614 C 328.966 98.653,329.093 98.603,325.627 101.860 C 324.885 102.558,322.489 104.095,322.144 104.095 C 321.997 104.095,321.611 104.326,321.285 104.609 C 320.716 105.102,316.021 106.739,315.178 106.738 C 314.953 106.737,314.626 106.880,314.452 107.054 C 314.277 107.229,314.135 107.273,314.135 107.154 C 314.135 107.034,313.986 107.054,313.804 107.198 C 313.089 107.764,305.657 108.369,302.175 108.144 C 299.451 107.969,299.132 107.700,300.282 106.550 C 300.879 105.952,305.776 95.726,306.720 93.106 L 307.299 91.495 312.236 91.330 C 317.204 91.164,323.693 90.321,323.866 89.819 C 323.915 89.679,324.152 89.562,324.395 89.560 C 325.228 89.553,330.481 87.757,331.079 87.275 C 331.277 87.116,332.094 86.661,332.893 86.266 C 333.692 85.871,335.020 85.024,335.843 84.385 C 336.666 83.746,337.420 83.223,337.518 83.223 C 337.702 83.223,340.610 80.301,342.008 78.712 C 342.941 77.651,344.207 75.719,344.536 74.852 C 344.664 74.516,344.872 74.240,344.998 74.240 C 345.124 74.240,345.687 73.200,346.250 71.929 C 346.813 70.657,347.367 69.577,347.481 69.529 C 347.759 69.411,347.747 68.692,347.468 68.692 C 347.346 68.692,346.306 68.122,345.156 67.426 C 344.006 66.729,342.351 65.874,341.480 65.527 C 340.608 65.179,339.834 64.808,339.761 64.703 C 338.845 63.388,321.004 61.174,321.004 62.376 C 321.004 62.508,320.603 62.616,320.114 62.616 C 319.309 62.616,315.323 63.235,313.998 63.566 C 313.518 63.686,313.434 63.500,313.142 61.668 C 312.965 60.552,312.718 59.506,312.595 59.344 C 312.471 59.181,311.985 57.860,311.515 56.407 C 311.044 54.954,310.385 53.349,310.051 52.840 C 309.716 52.332,309.089 51.257,308.658 50.453 C 308.227 49.649,307.559 48.651,307.174 48.235 C 306.788 47.819,306.473 47.338,306.473 47.167 C 306.473 46.548,299.119 38.857,297.596 37.883 C 297.174 37.614,296.691 37.207,296.521 36.978 C 296.351 36.750,295.667 36.219,295.001 35.798 C 294.336 35.378,293.791 34.938,293.791 34.822 C 293.791 34.096,292.477 35.182,290.981 37.145 C 290.565 37.690,289.927 38.453,289.564 38.841 C 288.055 40.452,285.337 46.489,285.337 48.230 C 285.337 48.441,285.198 48.613,285.029 48.613 C 284.859 48.613,284.786 48.679,284.866 48.759 C 284.947 48.839,284.858 49.420,284.668 50.048 C 283.659 53.402,283.509 63.646,284.409 67.768 C 284.901 70.020,284.917 70.080,285.111 70.410 C 285.196 70.555,285.650 71.895,286.118 73.387 C 286.587 74.879,287.113 76.246,287.288 76.425 C 287.704 76.851,289.639 80.331,289.522 80.444 C 289.237 80.717,286.789 81.902,286.508 81.902 C 286.324 81.902,286.133 82.024,286.083 82.173 C 286.034 82.322,284.491 82.961,282.655 83.593 C 280.819 84.225,279.188 84.822,279.030 84.919 C 278.096 85.497,269.287 86.922,266.652 86.922 C 265.885 86.922,265.258 87.041,265.258 87.186 C 265.258 87.356,262.616 87.450,257.860 87.450 L 250.462 87.450 250.462 73.976 L 250.462 60.502 237.252 60.502 L 224.042 60.502 224.042 34.214 L 224.042 7.926 207.926 7.926 L 191.810 7.926 191.810 21.004 M219.287 23.913 L 219.287 35.409 207.860 35.340 L 196.433 35.271 196.364 23.844 L 196.296 12.417 207.791 12.417 L 219.287 12.417 219.287 23.913 M198.679 23.910 L 198.679 33.289 199.339 33.289 L 200.000 33.289 200.000 23.910 L 200.000 14.531 199.339 14.531 L 198.679 14.531 198.679 23.910 M201.912 23.844 L 201.982 33.157 202.708 33.241 L 203.435 33.324 203.435 23.928 L 203.435 14.531 202.639 14.531 L 201.843 14.531 201.912 23.844 M205.347 23.844 L 205.416 33.157 206.209 33.157 L 207.001 33.157 207.071 23.844 L 207.140 14.531 206.209 14.531 L 205.277 14.531 205.347 23.844 M208.983 23.910 L 208.983 33.289 209.643 33.289 L 210.304 33.289 210.304 23.910 L 210.304 14.531 209.643 14.531 L 208.983 14.531 208.983 23.910 M212.216 23.844 L 212.285 33.157 213.012 33.241 L 213.738 33.324 213.738 23.928 L 213.738 14.531 212.942 14.531 L 212.146 14.531 212.216 23.844 M215.651 23.844 L 215.720 33.157 216.446 33.241 L 217.173 33.324 217.173 23.928 L 217.173 14.531 216.377 14.531 L 215.581 14.531 215.651 23.844 M166.843 50.066 L 166.843 61.427 155.284 61.496 L 143.725 61.564 143.725 50.245 C 143.725 44.019,143.806 38.845,143.904 38.747 C 144.003 38.648,149.204 38.599,155.463 38.637 L 166.843 38.705 166.843 50.066 M193.131 50.066 L 193.131 61.559 181.638 61.559 L 170.145 61.559 170.145 50.066 L 170.145 38.573 181.638 38.573 L 193.131 38.573 193.131 50.066 M219.287 50.069 L 219.287 61.564 207.860 61.496 L 196.433 61.427 196.364 50.330 C 196.326 44.227,196.352 39.085,196.422 38.904 C 196.521 38.646,199.065 38.573,207.918 38.573 L 219.287 38.573 219.287 50.069 M146.103 50.349 L 146.103 59.746 146.697 59.662 L 147.292 59.577 147.361 50.264 L 147.431 40.951 146.767 40.951 L 146.103 40.951 146.103 50.349 M149.336 50.264 L 149.406 59.577 150.132 59.661 L 150.859 59.744 150.859 50.348 L 150.859 40.951 150.063 40.951 L 149.267 40.951 149.336 50.264 M152.771 50.264 L 152.840 59.577 153.633 59.577 L 154.425 59.577 154.495 50.264 L 154.564 40.951 153.633 40.951 L 152.701 40.951 152.771 50.264 M156.147 50.000 C 156.151 59.421,156.195 59.813,157.229 59.666 L 157.860 59.577 157.929 50.264 L 157.999 40.951 157.071 40.951 L 156.143 40.951 156.147 50.000 M159.640 50.264 L 159.709 59.577 160.436 59.661 L 161.162 59.744 161.162 50.348 L 161.162 40.951 160.367 40.951 L 159.571 40.951 159.640 50.264 M163.012 49.912 C 163.012 59.253,163.048 59.709,163.780 59.709 C 164.826 59.709,164.861 59.390,164.861 50.013 L 164.861 40.951 163.937 40.951 L 163.012 40.951 163.012 49.912 M172.259 50.216 L 172.259 59.480 172.985 59.397 L 173.712 59.313 173.781 50.132 L 173.851 40.951 173.055 40.951 L 172.259 40.951 172.259 50.216 M175.694 50.198 L 175.694 59.445 176.486 59.445 L 177.279 59.445 177.279 50.198 L 177.279 40.951 176.486 40.951 L 175.694 40.951 175.694 50.198 M179.128 50.198 L 179.128 59.445 179.921 59.445 L 180.713 59.445 180.713 50.198 L 180.713 40.951 179.921 40.951 L 179.128 40.951 179.128 50.198 M182.563 50.198 L 182.563 59.445 183.355 59.445 L 184.148 59.445 184.148 50.198 L 184.148 40.951 183.355 40.951 L 182.563 40.951 182.563 50.198 M185.997 50.198 L 185.997 59.445 186.790 59.445 L 187.583 59.445 187.583 50.198 L 187.583 40.951 186.790 40.951 L 185.997 40.951 185.997 50.198 M189.432 50.198 L 189.432 59.445 190.225 59.445 L 191.017 59.445 191.017 50.198 L 191.017 40.951 190.225 40.951 L 189.432 40.951 189.432 50.198 M198.679 50.330 L 198.679 59.709 199.339 59.709 L 200.000 59.709 200.000 50.330 L 200.000 40.951 199.339 40.951 L 198.679 40.951 198.679 50.330 M201.912 50.264 L 201.982 59.577 202.708 59.661 L 203.435 59.744 203.435 50.348 L 203.435 40.951 202.639 40.951 L 201.843 40.951 201.912 50.264 M205.347 50.264 L 205.416 59.577 206.209 59.577 L 207.001 59.577 207.071 50.264 L 207.140 40.951 206.209 40.951 L 205.277 40.951 205.347 50.264 M208.719 49.912 C 208.719 59.592,208.730 59.709,209.672 59.709 L 210.304 59.709 210.304 50.330 L 210.304 40.951 209.511 40.951 L 208.719 40.951 208.719 49.912 M212.216 50.264 L 212.285 59.577 213.012 59.661 L 213.738 59.744 213.738 50.348 L 213.738 40.951 212.942 40.951 L 212.146 40.951 212.216 50.264 M215.588 50.206 C 215.588 58.531,215.631 59.478,216.020 59.628 C 217.265 60.105,217.301 59.857,217.375 50.103 L 217.444 40.951 216.516 40.951 L 215.588 40.951 215.588 50.206 M296.716 43.256 C 304.924 50.851,309.115 58.996,309.115 67.355 L 309.115 70.220 311.530 69.311 C 320.741 65.844,331.352 65.956,339.358 69.605 C 341.796 70.716,341.774 70.658,340.560 72.673 C 334.888 82.091,324.933 86.716,310.213 86.771 L 304.310 86.794 302.789 90.491 C 300.439 96.199,298.272 100.747,295.703 105.353 L 294.486 107.535 293.544 107.366 C 290.097 106.744,284.681 104.594,283.023 103.189 L 282.163 102.460 280.698 103.799 C 271.914 111.827,234.307 110.640,226.422 102.085 L 225.354 100.926 223.443 102.470 C 211.651 111.998,185.267 111.385,175.933 101.365 C 175.432 100.828,175.431 100.829,174.256 102.054 C 165.995 110.676,128.664 111.869,119.825 103.793 L 118.482 102.566 117.827 103.107 C 114.695 105.692,105.945 108.115,98.376 108.493 L 94.902 108.666 94.677 106.314 C 94.412 103.550,94.411 93.456,94.676 92.404 L 94.858 91.678 181.467 91.678 C 236.175 91.678,268.603 91.583,269.507 91.422 C 270.294 91.281,272.067 90.977,273.448 90.746 C 281.380 89.417,289.299 86.399,294.518 82.713 C 296.567 81.265,296.674 81.108,295.991 80.548 C 287.296 73.416,285.628 52.146,292.975 42.074 C 294.024 40.637,293.813 40.570,296.716 43.256 M140.492 76.420 L 140.423 87.847 129.062 87.847 L 117.701 87.847 117.633 76.420 L 117.564 64.993 129.062 64.993 L 140.560 64.993 140.492 76.420 M166.912 76.420 L 166.843 87.847 155.350 87.847 L 143.857 87.847 143.788 76.420 L 143.720 64.993 155.350 64.993 L 166.981 64.993 166.912 76.420 M193.068 76.420 L 192.999 87.847 181.572 87.916 L 170.145 87.984 170.145 76.489 L 170.145 64.993 181.641 64.993 L 193.136 64.993 193.068 76.420 M219.287 76.489 L 219.287 87.984 207.860 87.916 L 196.433 87.847 196.364 76.420 L 196.296 64.993 207.791 64.993 L 219.287 64.993 219.287 76.489 M245.643 76.420 L 245.575 87.847 234.148 87.916 L 222.721 87.984 222.721 76.489 L 222.721 64.993 234.217 64.993 L 245.712 64.993 245.643 76.420 M119.683 76.504 L 119.683 85.900 120.410 85.817 L 121.136 85.733 121.205 76.420 L 121.275 67.107 120.479 67.107 L 119.683 67.107 119.683 76.504 M123.180 76.420 L 123.250 85.733 123.910 85.733 L 124.571 85.733 124.640 76.420 L 124.710 67.107 123.910 67.107 L 123.111 67.107 123.180 76.420 M126.552 76.486 L 126.552 85.865 127.345 85.865 L 128.137 85.865 128.137 76.486 L 128.137 67.107 127.345 67.107 L 126.552 67.107 126.552 76.486 M130.049 76.420 L 130.119 85.733 130.779 85.733 L 131.440 85.733 131.509 76.420 L 131.579 67.107 130.779 67.107 L 129.980 67.107 130.049 76.420 M133.484 76.420 L 133.554 85.733 134.280 85.817 L 135.007 85.900 135.007 76.504 L 135.007 67.107 134.211 67.107 L 133.415 67.107 133.484 76.420 M136.856 76.504 L 136.856 85.900 137.583 85.817 L 138.309 85.733 138.379 76.420 L 138.448 67.107 137.652 67.107 L 136.856 67.107 136.856 76.504 M146.103 76.354 L 146.103 85.601 146.764 85.601 L 147.424 85.601 147.424 76.354 L 147.424 67.107 146.764 67.107 L 146.103 67.107 146.103 76.354 M149.273 76.354 L 149.273 85.601 150.066 85.601 L 150.859 85.601 150.859 76.354 L 150.859 67.107 150.066 67.107 L 149.273 67.107 149.273 76.354 M152.708 76.354 L 152.708 85.601 153.633 85.601 L 154.557 85.601 154.557 76.354 L 154.557 67.107 153.633 67.107 L 152.708 67.107 152.708 76.354 M156.407 76.354 L 156.407 85.601 157.199 85.601 L 157.992 85.601 157.992 76.354 L 157.992 67.107 157.199 67.107 L 156.407 67.107 156.407 76.354 M159.577 76.354 L 159.577 85.601 160.370 85.601 L 161.162 85.601 161.162 76.354 L 161.162 67.107 160.370 67.107 L 159.577 67.107 159.577 76.354 M163.276 76.354 L 163.276 85.601 163.937 85.601 L 164.597 85.601 164.597 76.354 L 164.597 67.107 163.937 67.107 L 163.276 67.107 163.276 76.354 M172.259 76.504 L 172.259 85.900 172.985 85.817 L 173.712 85.733 173.781 76.420 L 173.851 67.107 173.055 67.107 L 172.259 67.107 172.259 76.504 M175.756 76.420 L 175.826 85.733 176.486 85.733 L 177.147 85.733 177.216 76.420 L 177.285 67.107 176.486 67.107 L 175.687 67.107 175.756 76.420 M179.128 76.486 L 179.128 85.865 179.921 85.865 L 180.713 85.865 180.713 76.486 L 180.713 67.107 179.921 67.107 L 179.128 67.107 179.128 76.486 M182.625 76.420 L 182.695 85.733 183.355 85.733 L 184.016 85.733 184.085 76.420 L 184.155 67.107 183.355 67.107 L 182.556 67.107 182.625 76.420 M186.060 76.420 L 186.129 85.733 186.856 85.817 L 187.583 85.900 187.583 76.504 L 187.583 67.107 186.787 67.107 L 185.991 67.107 186.060 76.420 M189.432 76.504 L 189.432 85.900 190.159 85.817 L 190.885 85.733 190.955 76.420 L 191.024 67.107 190.228 67.107 L 189.432 67.107 189.432 76.504 M198.679 76.354 L 198.679 85.601 199.339 85.601 L 200.000 85.601 200.000 76.354 L 200.000 67.107 199.339 67.107 L 198.679 67.107 198.679 76.354 M201.849 76.354 L 201.849 85.601 202.642 85.601 L 203.435 85.601 203.435 76.354 L 203.435 67.107 202.642 67.107 L 201.849 67.107 201.849 76.354 M205.284 76.354 L 205.284 85.601 206.209 85.601 L 207.133 85.601 207.133 76.354 L 207.133 67.107 206.209 67.107 L 205.284 67.107 205.284 76.354 M208.983 76.354 L 208.983 85.601 209.643 85.601 L 210.304 85.601 210.304 76.354 L 210.304 67.107 209.643 67.107 L 208.983 67.107 208.983 76.354 M212.153 76.354 L 212.153 85.601 212.946 85.601 L 213.738 85.601 213.738 76.354 L 213.738 67.107 212.946 67.107 L 212.153 67.107 212.153 76.354 M215.588 76.354 L 215.588 85.601 216.380 85.601 L 217.173 85.601 217.173 76.354 L 217.173 67.107 216.380 67.107 L 215.588 67.107 215.588 76.354 M224.835 76.504 L 224.835 85.900 225.561 85.817 L 226.288 85.733 226.357 76.420 L 226.427 67.107 225.631 67.107 L 224.835 67.107 224.835 76.504 M228.068 76.420 L 228.137 85.733 228.930 85.733 L 229.723 85.733 229.792 76.420 L 229.861 67.107 228.930 67.107 L 227.999 67.107 228.068 76.420 M231.704 76.504 L 231.704 85.900 232.431 85.817 L 233.157 85.733 233.227 76.420 L 233.296 67.107 232.500 67.107 L 231.704 67.107 231.704 76.504 M235.201 76.420 L 235.271 85.733 235.931 85.733 L 236.592 85.733 236.661 76.420 L 236.731 67.107 235.931 67.107 L 235.132 67.107 235.201 76.420 M238.573 76.486 L 238.573 85.865 239.366 85.865 L 240.159 85.865 240.159 76.486 L 240.159 67.107 239.366 67.107 L 238.573 67.107 238.573 76.486 M242.008 76.504 L 242.008 85.900 242.734 85.817 L 243.461 85.733 243.530 76.420 L 243.600 67.107 242.804 67.107 L 242.008 67.107 242.008 76.504 M291.486 112.483 C 290.916 113.366,288.581 116.826,287.697 118.098 C 269.078 144.885,238.959 162.445,201.321 168.458 C 192.425 169.879,173.461 170.849,167.768 170.173 C 166.387 170.010,163.890 169.751,162.219 169.599 C 147.006 168.214,132.849 162.961,121.400 154.450 C 118.017 151.935,110.139 144.949,110.436 144.727 C 110.509 144.673,113.005 144.726,115.984 144.844 C 129.456 145.380,151.536 143.222,154.425 141.087 C 154.571 140.980,155.046 140.807,155.482 140.703 C 157.632 140.190,157.863 137.762,155.831 137.044 C 155.588 136.958,154.155 137.287,152.648 137.775 C 150.145 138.587,146.841 139.220,138.838 140.421 C 132.985 141.300,108.666 141.388,107.637 140.534 C 106.274 139.403,101.297 130.835,99.834 127.101 C 99.403 126.000,98.888 124.742,98.690 124.306 C 97.938 122.647,95.376 113.343,95.376 112.267 C 95.376 111.764,96.698 111.757,193.665 111.757 L 291.954 111.757 291.486 112.483 M164.046 126.805 C 159.278 128.250,160.280 135.403,165.247 135.377 C 167.934 135.363,169.617 133.655,169.617 130.941 C 169.617 129.442,169.597 129.395,169.134 129.814 C 168.868 130.054,168.294 130.251,167.859 130.251 C 166.366 130.251,165.287 128.197,166.327 127.334 C 167.121 126.675,165.622 126.327,164.046 126.805 M100.482 185.102 C 98.352 186.153,98.283 186.548,98.283 197.662 C 98.283 202.871,98.214 207.133,98.129 207.133 C 98.044 207.133,97.476 206.724,96.866 206.224 C 96.255 205.724,95.462 205.190,95.104 205.038 C 94.745 204.885,94.144 204.513,93.768 204.210 C 93.392 203.907,91.956 203.272,90.576 202.797 C 89.196 202.323,87.956 201.867,87.821 201.783 C 86.342 200.869,75.058 200.909,73.844 201.832 C 73.699 201.943,72.569 202.346,71.334 202.729 C 68.213 203.696,64.211 206.194,61.528 208.851 C 59.828 210.534,58.917 211.532,58.917 211.710 C 58.917 211.812,58.379 212.704,57.723 213.691 C 56.561 215.438,55.218 218.601,55.218 219.590 C 55.218 219.859,55.111 220.079,54.981 220.079 C 54.519 220.079,54.161 223.483,54.161 227.873 C 54.161 232.263,54.519 235.667,54.981 235.667 C 55.111 235.667,55.218 235.848,55.218 236.068 C 55.218 237.813,58.071 243.204,60.249 245.575 C 60.783 246.156,61.293 246.842,61.383 247.099 C 61.473 247.356,61.955 247.808,62.456 248.103 C 62.956 248.398,63.556 248.931,63.789 249.287 C 64.022 249.643,64.323 249.934,64.458 249.934 C 64.593 249.934,65.231 250.291,65.877 250.727 C 66.523 251.162,67.183 251.519,67.343 251.519 C 67.504 251.519,67.635 251.614,67.635 251.731 C 67.635 252.071,69.731 252.981,71.731 253.509 C 72.748 253.777,73.639 254.078,73.712 254.178 C 74.393 255.115,86.578 255.121,87.847 254.184 C 87.992 254.077,88.646 253.842,89.300 253.662 C 91.345 253.100,94.055 252.012,94.055 251.755 C 94.055 251.619,94.382 251.367,94.782 251.195 C 97.957 249.826,103.658 244.150,104.473 241.546 C 104.575 241.219,104.757 240.951,104.877 240.951 C 105.437 240.951,107.266 235.072,107.266 233.273 C 107.266 232.846,107.384 232.497,107.530 232.497 C 107.704 232.497,107.794 224.835,107.794 210.040 C 107.794 195.244,107.704 187.583,107.530 187.583 C 107.384 187.583,107.266 187.400,107.266 187.177 C 107.266 185.164,103.001 183.860,100.482 185.102 M224.703 185.193 C 224.412 185.313,223.877 185.731,223.514 186.122 L 222.853 186.832 222.783 219.242 C 222.733 242.167,222.797 251.855,223.000 252.347 C 224.265 255.402,229.440 255.593,231.367 252.655 C 231.772 252.038,231.848 251.155,231.925 246.181 C 231.973 243.014,232.092 240.421,232.189 240.420 C 232.285 240.418,232.840 240.888,233.421 241.464 C 247.232 255.157,246.834 254.822,249.279 254.822 C 252.712 254.822,254.959 251.359,253.596 248.167 C 253.224 247.297,246.676 240.381,238.882 232.626 L 234.415 228.182 236.428 226.150 C 244.628 217.872,252.806 209.320,253.301 208.505 C 254.480 206.566,253.926 203.341,252.267 202.491 C 251.783 202.243,251.302 201.908,251.199 201.746 C 251.091 201.579,250.240 201.453,249.210 201.453 C 247.086 201.453,246.379 201.921,242.530 205.876 C 241.291 207.149,240.185 208.190,240.072 208.190 C 239.959 208.190,238.169 209.914,236.095 212.021 C 234.020 214.128,232.247 215.852,232.154 215.852 C 232.062 215.852,231.952 209.521,231.911 201.783 C 231.827 185.950,231.849 186.132,229.919 185.326 C 228.927 184.911,225.589 184.826,224.703 185.193 M279.723 201.240 C 278.596 201.456,277.675 201.742,277.675 201.874 C 277.675 202.006,277.467 202.115,277.213 202.117 C 276.543 202.122,273.028 203.715,271.334 204.781 C 270.535 205.284,269.555 205.861,269.156 206.062 C 268.758 206.264,268.250 206.706,268.027 207.045 C 267.805 207.384,267.464 207.662,267.269 207.662 C 266.835 207.662,263.791 210.981,263.249 212.044 C 263.034 212.467,262.703 212.933,262.515 213.078 C 262.118 213.384,260.238 217.116,260.238 217.598 C 260.238 217.776,260.110 217.964,259.954 218.016 C 258.823 218.393,257.744 227.668,258.361 231.704 C 258.726 234.091,259.699 237.517,260.012 237.517 C 260.136 237.517,260.238 237.668,260.238 237.854 C 260.238 238.339,262.203 242.112,262.999 243.156 C 263.369 243.642,263.672 244.148,263.672 244.281 C 263.672 244.502,266.864 247.843,268.428 249.259 C 268.791 249.588,269.859 250.261,270.801 250.754 C 271.742 251.248,272.668 251.796,272.858 251.972 C 273.047 252.149,274.358 252.655,275.769 253.096 C 277.181 253.538,278.523 254.006,278.752 254.136 C 280.372 255.056,289.512 255.214,291.426 254.356 C 291.928 254.131,293.092 253.702,294.014 253.403 C 301.082 251.107,303.429 245.958,298.803 242.896 C 297.342 241.929,292.699 242.657,290.299 244.229 C 289.243 244.921,285.129 245.306,282.606 244.949 C 280.012 244.582,279.962 244.535,281.110 243.544 C 281.618 243.104,282.675 242.193,283.459 241.518 C 284.243 240.843,285.190 240.002,285.565 239.650 C 285.939 239.298,286.767 238.611,287.405 238.124 C 288.519 237.275,289.137 236.717,291.370 234.544 C 291.931 233.999,292.512 233.554,292.663 233.554 C 292.814 233.554,293.367 233.078,293.892 232.497 C 294.417 231.915,294.922 231.440,295.013 231.440 C 295.104 231.440,296.205 230.541,297.458 229.442 C 298.711 228.343,300.306 226.946,301.003 226.337 C 301.701 225.729,302.830 224.727,303.513 224.110 C 304.197 223.493,304.838 222.988,304.939 222.987 C 306.201 222.977,309.115 218.597,309.115 216.711 C 309.115 215.755,307.888 212.682,307.506 212.682 C 307.387 212.682,307.093 212.266,306.852 211.759 C 306.611 211.251,306.011 210.482,305.519 210.049 C 305.026 209.617,304.624 209.155,304.624 209.022 C 304.624 208.890,304.212 208.467,303.708 208.083 C 303.205 207.699,302.421 207.046,301.967 206.631 C 301.512 206.216,300.825 205.719,300.438 205.527 C 300.052 205.336,299.378 204.921,298.940 204.605 C 297.799 203.783,293.652 202.114,292.751 202.114 C 292.476 202.114,292.210 201.994,292.162 201.849 C 291.855 200.928,283.473 200.518,279.723 201.240 M134.257 201.341 C 133.337 201.460,132.445 201.662,132.276 201.790 C 132.107 201.917,131.433 202.168,130.779 202.348 C 128.734 202.911,126.024 203.998,126.024 204.256 C 126.024 204.392,125.697 204.644,125.297 204.816 C 122.164 206.166,116.725 211.613,115.532 214.594 C 115.313 215.141,115.039 215.588,114.923 215.588 C 114.530 215.588,113.279 219.662,112.936 222.061 C 112.832 222.787,112.654 223.501,112.540 223.646 C 112.266 223.995,112.266 231.925,112.540 232.094 C 112.656 232.166,112.837 232.906,112.941 233.738 C 113.143 235.352,114.539 239.915,114.904 240.150 C 115.024 240.227,115.423 240.885,115.791 241.612 C 117.386 244.765,122.116 249.802,124.619 251.014 C 125.246 251.318,125.760 251.664,125.760 251.784 C 125.760 252.017,128.567 253.127,130.515 253.662 C 131.169 253.842,131.827 254.081,131.977 254.192 C 133.208 255.107,145.451 255.112,146.097 254.199 C 146.173 254.091,147.003 253.794,147.942 253.537 C 150.040 252.964,152.180 252.062,152.180 251.751 C 152.180 251.623,152.310 251.519,152.470 251.519 C 152.950 251.519,155.760 249.691,156.555 248.860 C 156.964 248.433,157.440 248.085,157.613 248.085 C 157.787 248.085,158.387 247.520,158.948 246.830 C 159.508 246.139,160.236 245.358,160.565 245.093 C 160.893 244.828,161.162 244.489,161.162 244.339 C 161.162 244.188,161.504 243.632,161.921 243.103 C 162.917 241.838,163.889 239.875,164.492 237.913 C 164.760 237.041,165.066 236.264,165.173 236.187 C 166.276 235.387,166.238 220.343,165.133 220.343 C 165.018 220.343,164.786 219.794,164.617 219.123 C 164.177 217.377,162.996 214.877,161.869 213.309 C 161.335 212.566,160.898 211.830,160.898 211.674 C 160.898 211.518,160.656 211.221,160.361 211.014 C 160.065 210.807,159.500 210.208,159.106 209.683 C 156.743 206.538,151.637 203.259,147.695 202.356 C 147.045 202.207,146.450 201.985,146.374 201.862 C 145.968 201.212,137.923 200.865,134.257 201.341 M191.421 201.366 C 190.699 201.504,189.986 201.713,189.836 201.831 C 189.687 201.948,189.089 202.188,188.507 202.363 C 186.385 203.003,184.527 203.807,183.805 204.400 C 183.398 204.734,182.650 205.204,182.142 205.446 C 181.031 205.973,176.324 210.405,175.797 211.419 C 175.592 211.814,175.187 212.358,174.898 212.628 C 174.369 213.121,172.787 216.148,172.787 216.668 C 172.787 216.821,172.625 217.108,172.428 217.306 C 170.164 219.570,170.216 233.381,172.506 238.177 C 172.784 238.758,173.287 239.916,173.626 240.751 C 173.964 241.585,174.567 242.655,174.966 243.129 C 175.366 243.602,175.693 244.144,175.693 244.333 C 175.694 244.918,181.303 250.353,182.563 250.990 C 183.217 251.320,183.811 251.680,183.884 251.789 C 184.607 252.878,191.353 254.711,195.248 254.876 C 198.721 255.023,203.744 254.648,204.342 254.197 C 204.497 254.080,205.332 253.832,206.197 253.645 C 210.120 252.800,212.823 250.650,213.121 248.139 C 213.749 242.831,209.008 240.912,203.308 244.167 C 199.634 246.265,190.488 244.721,186.971 241.409 C 186.627 241.085,185.808 240.315,185.152 239.699 C 180.887 235.696,179.253 228.891,181.080 222.738 C 182.648 217.460,187.811 212.274,192.781 210.987 C 195.855 210.190,202.995 210.752,203.671 211.843 C 204.275 212.820,209.344 213.593,210.651 212.908 C 215.576 210.328,213.513 204.658,206.869 202.513 C 206.070 202.255,205.297 201.952,205.152 201.839 C 204.210 201.109,194.519 200.775,191.421 201.366 M339.564 201.501 C 338.801 201.563,338.177 201.725,338.177 201.863 C 338.177 202.001,337.907 202.114,337.577 202.114 C 336.355 202.114,331.463 203.745,330.745 204.392 C 330.508 204.606,329.913 204.985,329.424 205.235 C 326.421 206.769,320.211 213.025,320.211 214.517 C 320.211 214.670,320.104 214.795,319.972 214.795 C 319.726 214.795,318.098 218.475,318.098 219.030 C 318.098 219.200,317.924 219.714,317.711 220.171 C 316.824 222.078,316.725 223.464,316.589 235.871 C 316.416 251.620,316.447 252.008,318.006 253.612 L 319.181 254.822 321.363 254.822 C 323.378 254.822,323.614 254.764,324.454 254.063 C 326.222 252.588,326.141 253.286,326.302 238.177 C 326.451 224.183,326.619 222.029,327.611 221.400 C 327.725 221.328,328.128 220.614,328.506 219.815 C 330.567 215.460,336.398 211.599,341.648 211.113 C 346.598 210.655,348.217 209.547,348.217 206.617 C 348.217 202.201,346.136 200.971,339.564 201.501 M85.160 211.232 C 86.937 211.701,90.766 213.780,91.448 214.646 C 91.741 215.019,92.128 215.324,92.308 215.324 C 92.717 215.324,94.055 216.696,94.055 217.115 C 94.055 217.286,94.340 217.612,94.689 217.840 C 95.299 218.240,96.778 220.972,97.118 222.328 C 97.209 222.689,97.377 222.985,97.492 222.985 C 97.787 222.985,98.283 226.043,98.283 227.864 C 98.283 229.680,97.755 232.761,97.444 232.761 C 97.324 232.761,97.226 232.913,97.226 233.099 C 97.226 233.732,95.352 237.349,94.672 238.028 C 94.299 238.401,93.896 238.961,93.777 239.274 C 93.657 239.587,93.107 240.181,92.553 240.595 C 91.999 241.009,91.382 241.567,91.182 241.835 C 89.637 243.912,82.601 245.775,78.549 245.181 C 73.634 244.460,67.442 240.104,65.754 236.180 C 65.445 235.462,65.107 234.875,65.003 234.875 C 64.416 234.875,63.804 231.435,63.804 228.137 C 63.804 224.873,64.415 221.400,64.989 221.400 C 65.086 221.400,65.483 220.717,65.872 219.881 C 67.160 217.116,70.243 213.912,72.721 212.764 C 73.557 212.377,74.240 211.985,74.240 211.894 C 74.240 211.700,77.372 210.890,78.732 210.732 C 80.174 210.564,83.653 210.835,85.160 211.232 M143.789 211.271 C 144.553 211.497,145.238 211.759,145.310 211.852 C 145.383 211.945,146.275 212.436,147.292 212.942 C 149.228 213.906,154.029 218.286,154.029 219.089 C 154.029 219.302,154.340 219.936,154.721 220.497 C 155.946 222.302,156.265 223.822,156.270 227.873 C 156.275 231.470,155.556 235.139,154.847 235.139 C 154.740 235.139,154.374 235.753,154.035 236.503 C 153.108 238.555,149.330 242.261,147.082 243.323 C 146.114 243.780,145.261 244.252,145.187 244.372 C 144.443 245.576,134.092 245.410,133.167 244.179 C 133.089 244.075,132.312 243.639,131.440 243.211 C 130.568 242.782,129.433 242.032,128.917 241.544 C 128.401 241.056,127.688 240.511,127.332 240.334 C 126.976 240.156,126.532 239.693,126.346 239.305 C 126.159 238.916,125.707 238.362,125.340 238.074 C 124.651 237.532,123.344 235.077,123.005 233.688 C 122.898 233.254,122.687 232.821,122.534 232.727 C 121.664 232.189,121.728 223.604,122.605 223.294 C 122.741 223.245,122.856 223.067,122.858 222.897 C 122.900 220.258,127.678 214.479,131.425 212.535 C 133.335 211.544,134.235 211.270,137.384 210.724 C 138.550 210.521,142.356 210.846,143.789 211.271 M289.036 210.945 C 290.619 211.336,291.472 211.634,291.678 211.870 C 291.750 211.953,292.731 212.466,293.857 213.010 C 294.983 213.553,295.905 214.102,295.905 214.230 C 295.905 214.357,296.394 214.784,296.992 215.180 L 298.079 215.899 297.166 216.734 C 294.789 218.910,292.489 220.872,292.316 220.872 C 292.211 220.872,291.674 221.318,291.123 221.863 C 290.011 222.962,288.335 224.431,286.914 225.552 C 286.400 225.957,285.729 226.526,285.421 226.816 C 285.113 227.107,284.284 227.836,283.580 228.437 C 282.875 229.038,281.169 230.501,279.789 231.687 C 278.408 232.874,276.829 234.225,276.279 234.690 C 275.730 235.155,274.898 235.895,274.430 236.335 C 273.962 236.775,273.151 237.460,272.627 237.857 L 271.675 238.578 270.556 236.848 C 267.324 231.849,267.315 223.264,270.538 218.663 C 271.121 217.831,271.598 217.054,271.598 216.937 C 271.598 216.819,272.252 216.202,273.052 215.564 C 273.851 214.926,274.505 214.318,274.505 214.212 C 274.505 214.105,275.426 213.574,276.552 213.030 C 277.678 212.487,278.672 211.939,278.761 211.812 C 279.466 210.803,286.169 210.238,289.036 210.945 " stroke="none" fill="#334c54" fill-rule="evenodd"></path><path id="path3" d="M163.443 124.959 C 158.808 126.444,157.524 133.037,161.307 135.923 C 167.279 140.478,174.677 133.204,170.226 127.153 C 168.877 125.318,165.616 124.264,163.443 124.959 M166.799 126.729 C 166.897 126.826,166.789 127.113,166.559 127.366 C 165.405 128.642,167.124 130.762,168.618 129.905 C 170.004 129.109,170.389 130.983,169.287 133.166 C 167.035 137.628,160.014 135.307,160.758 130.346 C 161.133 127.845,165.376 125.305,166.799 126.729 M149.670 142.409 C 142.314 144.298,132.239 145.167,119.617 145.001 C 114.858 144.939,110.964 144.979,110.964 145.090 C 110.964 145.317,116.864 150.644,119.212 152.538 C 133.960 164.435,152.280 170.145,175.699 170.145 C 181.112 170.145,182.332 169.957,180.668 169.377 C 180.208 169.216,178.573 168.353,177.036 167.458 C 166.308 161.217,159.249 153.956,154.382 144.158 C 153.686 142.757,152.995 141.623,152.847 141.637 C 152.698 141.651,151.268 141.999,149.670 142.409 " stroke="none" fill="#c6dee6" fill-rule="evenodd"></path><path id="path4" d="M196.429 23.778 L 196.433 35.271 207.860 35.275 L 219.287 35.279 207.929 35.206 L 196.571 35.133 196.498 23.709 L 196.425 12.285 196.429 23.778 M198.542 14.581 C 198.468 14.773,198.441 19.091,198.481 24.176 L 198.554 33.421 198.616 23.976 L 198.679 14.531 199.336 14.531 L 199.993 14.531 200.068 23.844 L 200.142 33.157 200.137 23.778 L 200.132 14.399 199.404 14.315 C 198.978 14.266,198.620 14.376,198.542 14.581 M202.837 14.457 L 203.428 14.566 203.502 23.861 L 203.577 33.157 203.572 23.778 L 203.567 14.399 202.906 14.373 C 202.338 14.352,202.329 14.363,202.837 14.457 M208.846 14.581 C 208.772 14.773,208.745 19.091,208.785 24.176 L 208.858 33.421 208.920 23.976 L 208.983 14.531 209.640 14.531 L 210.297 14.531 210.372 23.844 L 210.446 33.157 210.441 23.778 L 210.436 14.399 209.708 14.315 C 209.282 14.266,208.924 14.376,208.846 14.581 M213.141 14.457 L 213.732 14.566 213.806 23.861 L 213.881 33.157 213.876 23.778 L 213.871 14.399 213.210 14.373 C 212.642 14.352,212.632 14.363,213.141 14.457 M216.575 14.457 L 217.166 14.566 217.241 23.861 L 217.315 33.157 217.310 23.778 L 217.305 14.399 216.645 14.373 C 216.077 14.352,216.067 14.363,216.575 14.457 M143.847 38.901 C 143.777 39.084,143.752 44.287,143.791 50.462 L 143.863 61.691 143.926 50.264 L 143.989 38.838 155.356 38.838 L 166.722 38.838 166.650 50.185 C 166.611 56.426,166.669 61.442,166.780 61.331 C 166.890 61.221,166.950 56.085,166.912 49.918 L 166.843 38.705 155.409 38.637 C 146.403 38.582,143.948 38.638,143.847 38.901 M181.437 38.771 L 192.861 38.843 192.933 50.267 L 193.004 61.691 193.068 50.132 L 193.131 38.573 181.572 38.636 L 170.013 38.700 181.437 38.771 M196.422 38.904 C 196.352 39.085,196.328 44.227,196.367 50.330 L 196.439 61.427 196.502 50.135 L 196.565 38.843 207.992 38.771 L 219.419 38.700 207.984 38.636 C 199.031 38.587,196.521 38.645,196.422 38.904 M145.901 50.264 L 145.964 59.841 146.037 50.396 L 146.110 40.951 146.773 40.951 L 147.437 40.951 147.365 50.330 C 147.325 55.489,147.381 59.710,147.490 59.709 C 147.599 59.709,147.688 55.429,147.688 50.198 L 147.688 40.687 146.764 40.687 L 145.839 40.687 145.901 50.264 M149.997 40.878 L 150.852 40.984 150.925 50.413 L 150.998 59.841 151.060 50.264 L 151.123 40.687 150.132 40.729 C 149.161 40.771,149.159 40.774,149.997 40.878 M153.173 40.874 C 153.502 40.937,153.978 40.935,154.230 40.868 C 154.483 40.802,154.214 40.751,153.633 40.754 C 153.052 40.756,152.845 40.811,153.173 40.874 M156.055 40.863 C 155.813 41.104,155.838 58.973,156.081 59.354 C 156.187 59.522,156.241 55.458,156.199 50.322 L 156.124 40.984 157.124 40.880 L 158.124 40.776 157.177 40.731 C 156.657 40.707,156.151 40.766,156.055 40.863 M160.301 40.878 L 161.156 40.984 161.229 50.413 L 161.301 59.841 161.364 50.264 L 161.427 40.687 160.436 40.729 C 159.465 40.771,159.462 40.774,160.301 40.878 M163.477 40.874 C 163.806 40.937,164.282 40.935,164.534 40.868 C 164.787 40.802,164.518 40.751,163.937 40.754 C 163.355 40.756,163.149 40.811,163.477 40.874 M172.589 40.869 C 172.843 40.935,173.260 40.935,173.514 40.869 C 173.768 40.803,173.560 40.748,173.052 40.748 C 172.543 40.748,172.335 40.803,172.589 40.869 M175.429 50.198 L 175.429 59.709 176.420 59.667 C 177.396 59.625,177.398 59.623,176.552 59.518 L 175.694 59.412 175.694 50.198 L 175.694 40.985 176.552 40.878 C 177.398 40.773,177.396 40.771,176.420 40.729 L 175.429 40.687 175.429 50.198 M179.053 40.851 C 178.949 40.954,178.864 45.240,178.864 50.374 L 178.864 59.709 179.855 59.667 C 180.830 59.625,180.832 59.623,179.987 59.518 L 179.128 59.412 179.128 50.181 L 179.128 40.951 179.917 40.951 L 180.706 40.951 180.781 50.066 L 180.856 59.181 180.851 50.000 L 180.845 40.819 180.043 40.740 C 179.602 40.697,179.156 40.747,179.053 40.851 M182.425 41.002 C 182.352 41.194,182.323 45.452,182.361 50.464 L 182.431 59.577 183.223 59.602 C 183.971 59.625,183.975 59.620,183.289 59.519 L 182.563 59.412 182.563 50.181 L 182.563 40.951 183.352 40.951 L 184.141 40.951 184.216 50.066 L 184.290 59.181 184.285 50.000 L 184.280 40.819 183.420 40.736 C 182.886 40.685,182.508 40.786,182.425 41.002 M185.853 41.019 C 185.783 41.201,185.757 45.452,185.796 50.464 L 185.865 59.577 186.658 59.602 C 187.406 59.625,187.409 59.620,186.724 59.519 L 185.997 59.412 185.997 50.198 L 185.997 40.985 186.856 40.878 L 187.715 40.771 186.848 40.729 C 186.361 40.705,185.925 40.832,185.853 41.019 M190.221 40.836 L 191.010 40.984 191.085 50.083 L 191.160 59.181 191.154 50.000 L 191.149 40.819 190.291 40.753 C 189.450 40.688,189.449 40.690,190.221 40.836 M198.477 50.264 L 198.540 59.841 198.613 50.396 L 198.686 40.951 199.339 40.951 L 199.993 40.951 200.066 50.396 L 200.139 59.841 200.202 50.264 L 200.264 40.687 199.339 40.687 L 198.415 40.687 198.477 50.264 M202.573 40.878 L 203.428 40.984 203.501 50.413 L 203.574 59.841 203.636 50.264 L 203.699 40.687 202.708 40.729 C 201.737 40.771,201.735 40.774,202.573 40.878 M205.749 40.874 C 206.078 40.937,206.554 40.935,206.806 40.868 C 207.059 40.802,206.790 40.751,206.209 40.754 C 205.627 40.756,205.421 40.811,205.749 40.874 M208.631 40.863 C 208.389 41.104,208.414 58.973,208.657 59.354 C 208.763 59.522,208.817 55.450,208.775 50.306 L 208.699 40.951 209.498 40.951 L 210.297 40.951 210.370 50.396 L 210.443 59.841 210.505 50.264 L 210.568 40.687 209.687 40.687 C 209.203 40.687,208.727 40.766,208.631 40.863 M212.876 40.878 L 213.732 40.984 213.805 50.413 L 213.877 59.841 213.940 50.264 L 214.003 40.687 213.012 40.729 C 212.041 40.771,212.038 40.774,212.876 40.878 M216.053 40.874 C 216.382 40.937,216.857 40.935,217.110 40.868 C 217.363 40.802,217.094 40.751,216.513 40.754 C 215.931 40.756,215.725 40.811,216.053 40.874 M293.370 41.546 L 292.867 42.140 293.444 41.652 C 293.770 41.377,294.163 41.250,294.344 41.362 C 294.549 41.489,294.597 41.451,294.477 41.256 C 294.201 40.809,293.934 40.879,293.370 41.546 M295.376 42.091 C 295.376 42.136,295.763 42.522,296.235 42.949 L 297.094 43.725 296.318 42.867 C 295.594 42.066,295.376 41.886,295.376 42.091 M300.132 46.896 C 300.625 47.404,301.088 47.820,301.160 47.820 C 301.233 47.820,300.889 47.404,300.396 46.896 C 299.903 46.387,299.441 45.971,299.368 45.971 C 299.295 45.971,299.639 46.387,300.132 46.896 M288.629 53.490 C 288.527 54.309,288.500 55.035,288.570 55.105 C 288.640 55.175,288.776 54.558,288.873 53.734 C 288.970 52.911,288.996 52.184,288.932 52.120 C 288.868 52.056,288.731 52.672,288.629 53.490 M288.349 59.577 C 288.349 61.757,288.390 62.613,288.440 61.481 C 288.489 60.348,288.489 58.565,288.439 57.518 C 288.389 56.471,288.348 57.398,288.349 59.577 M172.919 59.445 L 172.127 59.647 172.985 59.678 C 173.458 59.695,173.844 59.590,173.844 59.445 C 173.844 59.300,173.814 59.195,173.778 59.212 C 173.742 59.229,173.355 59.334,172.919 59.445 M189.762 59.627 C 190.017 59.694,190.433 59.694,190.687 59.627 C 190.941 59.561,190.733 59.506,190.225 59.506 C 189.716 59.506,189.508 59.561,189.762 59.627 M308.103 60.766 C 308.116 61.453,308.532 62.580,308.542 61.955 C 308.546 61.664,308.447 61.189,308.322 60.898 C 308.183 60.575,308.098 60.523,308.103 60.766 M308.786 66.050 C 308.910 70.657,309.054 71.297,309.053 67.239 C 309.053 65.495,308.971 63.712,308.871 63.276 C 308.772 62.840,308.734 64.089,308.786 66.050 M288.574 64.597 C 288.577 65.178,288.631 65.385,288.694 65.056 C 288.757 64.728,288.755 64.252,288.689 64.000 C 288.623 63.747,288.571 64.016,288.574 64.597 M117.697 76.354 L 117.701 87.847 129.062 87.847 L 140.423 87.847 140.427 76.420 L 140.431 64.993 140.358 76.354 L 140.285 87.715 129.062 87.715 L 117.839 87.715 117.766 76.288 L 117.693 64.861 117.697 76.354 M143.853 76.354 L 143.857 87.847 155.350 87.847 L 166.843 87.847 166.847 76.420 L 166.851 64.993 166.778 76.354 L 166.705 87.715 155.350 87.715 L 143.995 87.715 143.922 76.288 L 143.849 64.861 143.853 76.354 M192.930 76.285 L 192.867 87.709 181.440 87.781 L 170.013 87.853 181.448 87.916 C 190.399 87.965,192.911 87.907,193.010 87.649 C 193.080 87.467,193.104 82.266,193.065 76.090 L 192.993 64.861 192.930 76.285 M196.429 76.354 L 196.433 87.847 207.860 87.851 L 219.287 87.855 207.929 87.782 L 196.571 87.709 196.498 76.285 L 196.425 64.861 196.429 76.354 M245.506 76.285 L 245.443 87.709 234.016 87.781 L 222.589 87.853 234.024 87.916 C 242.975 87.965,245.487 87.907,245.586 87.649 C 245.656 87.467,245.680 82.266,245.641 76.090 L 245.569 64.861 245.506 76.285 M288.790 66.336 C 288.800 66.688,288.916 67.213,289.048 67.503 C 289.215 67.872,289.239 67.711,289.126 66.975 C 288.940 65.748,288.763 65.413,288.790 66.336 M119.545 67.158 C 119.472 67.350,119.445 71.608,119.485 76.620 L 119.558 85.733 119.620 76.420 L 119.683 67.107 120.479 67.107 L 121.275 67.107 121.205 76.418 L 121.136 85.728 120.343 85.898 C 119.630 86.050,119.617 86.070,120.211 86.094 C 121.571 86.150,121.544 86.362,121.470 76.336 L 121.400 66.975 120.540 66.892 C 120.006 66.841,119.628 66.942,119.545 67.158 M122.853 76.349 L 122.853 85.855 123.533 86.026 C 123.907 86.120,124.322 86.088,124.455 85.955 C 124.601 85.808,124.411 85.717,123.973 85.723 L 123.250 85.733 123.180 76.437 L 123.111 67.141 123.973 67.034 C 124.826 66.928,124.824 66.927,123.844 66.885 L 122.853 66.843 122.853 76.349 M126.415 67.158 C 126.341 67.350,126.314 71.608,126.354 76.620 L 126.427 85.733 126.490 76.420 L 126.552 67.107 127.341 67.107 L 128.131 67.107 128.205 76.288 L 128.280 85.469 128.275 76.222 L 128.269 66.975 127.409 66.892 C 126.875 66.841,126.498 66.942,126.415 67.158 M130.717 67.034 L 131.579 67.141 131.509 76.437 L 131.440 85.733 130.716 85.723 C 130.279 85.717,130.088 85.808,130.235 85.955 C 130.368 86.088,130.782 86.120,131.156 86.026 L 131.836 85.855 131.836 76.349 L 131.836 66.843 130.845 66.885 C 129.865 66.927,129.864 66.928,130.717 67.034 M133.333 67.019 C 133.236 67.116,133.157 71.394,133.157 76.525 L 133.157 85.855 133.817 86.021 C 135.318 86.397,135.271 86.710,135.271 76.362 L 135.271 66.843 134.390 66.843 C 133.906 66.843,133.430 66.922,133.333 67.019 M137.652 66.992 L 138.448 67.141 138.379 76.435 L 138.309 85.728 137.517 85.898 C 136.753 86.061,136.749 86.068,137.418 86.098 C 138.702 86.156,138.717 86.033,138.643 76.191 L 138.573 66.975 137.715 66.909 C 136.862 66.843,136.861 66.844,137.652 66.992 M145.839 76.337 L 145.839 85.865 146.767 85.865 L 147.695 85.865 147.626 76.420 L 147.556 66.975 146.697 66.892 L 145.839 66.809 145.839 76.337 M150.066 66.992 L 150.859 67.140 150.859 76.354 L 150.859 85.568 150.000 85.674 C 149.157 85.779,149.160 85.781,150.135 85.823 L 151.130 85.865 151.060 76.420 L 150.991 66.975 150.132 66.909 C 149.286 66.844,149.285 66.845,150.066 66.992 M153.173 67.030 C 153.502 67.093,153.978 67.090,154.230 67.024 C 154.483 66.958,154.214 66.906,153.633 66.909 C 153.052 66.912,152.845 66.966,153.173 67.030 M156.143 76.354 L 156.143 85.865 157.133 85.823 C 158.109 85.781,158.111 85.779,157.266 85.674 L 156.407 85.568 156.407 76.354 L 156.407 67.140 157.266 67.034 C 158.111 66.929,158.109 66.927,157.133 66.885 L 156.143 66.843 156.143 76.354 M160.304 67.034 L 161.162 67.140 161.162 76.354 L 161.162 85.568 160.304 85.674 C 159.458 85.779,159.460 85.781,160.436 85.823 L 161.427 85.865 161.427 76.354 L 161.427 66.843 160.436 66.885 C 159.460 66.927,159.458 66.929,160.304 67.034 M163.012 76.354 L 163.012 85.865 163.937 85.865 L 164.861 85.865 164.861 76.354 L 164.861 66.843 163.937 66.843 L 163.012 66.843 163.012 76.354 M172.121 67.158 C 172.048 67.350,172.021 71.608,172.061 76.620 L 172.134 85.733 172.196 76.420 L 172.259 67.107 173.055 67.107 L 173.851 67.107 173.781 76.418 L 173.712 85.728 172.919 85.898 C 172.156 86.061,172.152 86.068,172.821 86.098 C 174.105 86.156,174.120 86.033,174.046 76.191 L 173.976 66.975 173.116 66.892 C 172.582 66.841,172.204 66.942,172.121 67.158 M175.429 76.349 L 175.429 85.855 176.109 86.026 C 176.483 86.120,176.898 86.088,177.031 85.955 C 177.177 85.808,176.987 85.717,176.549 85.723 L 175.826 85.733 175.756 76.437 L 175.687 67.141 176.549 67.034 C 177.402 66.928,177.400 66.927,176.420 66.885 L 175.429 66.843 175.429 76.349 M178.927 76.404 L 178.996 85.997 179.921 86.032 L 180.845 86.066 179.987 85.949 L 179.128 85.832 179.128 76.469 L 179.128 67.107 179.917 67.107 L 180.707 67.107 180.781 76.354 L 180.856 85.601 180.851 76.288 L 180.845 66.975 179.851 66.893 L 178.857 66.811 178.927 76.404 M182.487 67.006 C 182.383 67.110,182.299 71.394,182.299 76.525 L 182.299 85.855 182.962 86.022 C 184.422 86.388,184.425 86.364,184.349 76.253 L 184.280 66.975 183.478 66.896 C 183.037 66.853,182.591 66.903,182.487 67.006 M185.922 67.006 C 185.818 67.110,185.733 71.383,185.733 76.502 C 185.733 86.586,185.673 86.178,187.142 86.098 C 187.557 86.076,187.497 86.020,186.922 85.898 L 186.129 85.728 186.060 76.418 L 185.991 67.107 186.783 67.107 L 187.576 67.107 187.650 76.288 L 187.725 85.469 187.720 76.222 L 187.715 66.975 186.913 66.896 C 186.471 66.853,186.026 66.903,185.922 67.006 M190.228 66.992 L 191.024 67.141 190.954 76.435 L 190.885 85.728 190.092 85.898 C 189.329 86.061,189.325 86.068,189.994 86.098 C 191.278 86.156,191.293 86.033,191.219 76.191 L 191.149 66.975 190.291 66.909 C 189.438 66.843,189.437 66.844,190.228 66.992 M198.415 76.337 L 198.415 85.865 199.343 85.865 L 200.271 85.865 200.201 76.420 L 200.132 66.975 199.273 66.892 L 198.415 66.809 198.415 76.337 M202.642 66.992 L 203.435 67.140 203.435 76.354 L 203.435 85.568 202.576 85.674 C 201.733 85.779,201.736 85.781,202.711 85.823 L 203.705 85.865 203.636 76.420 L 203.567 66.975 202.708 66.909 C 201.862 66.844,201.861 66.845,202.642 66.992 M205.749 67.030 C 206.078 67.093,206.554 67.090,206.806 67.024 C 207.059 66.958,206.790 66.906,206.209 66.909 C 205.627 66.912,205.421 66.966,205.749 67.030 M208.719 76.337 L 208.719 85.865 209.647 85.865 L 210.575 85.865 210.505 76.420 L 210.436 66.975 209.577 66.892 L 208.719 66.809 208.719 76.337 M212.880 67.034 L 213.738 67.140 213.738 76.354 L 213.738 85.568 212.880 85.674 C 212.034 85.779,212.036 85.781,213.012 85.823 L 214.003 85.865 214.003 76.354 L 214.003 66.843 213.012 66.885 C 212.036 66.927,212.034 66.929,212.880 67.034 M216.314 67.034 L 217.173 67.140 217.173 76.354 L 217.173 85.568 216.314 85.674 C 215.469 85.779,215.471 85.781,216.446 85.823 L 217.437 85.865 217.437 76.354 L 217.437 66.843 216.446 66.885 C 215.471 66.927,215.469 66.929,216.314 67.034 M224.697 67.158 C 224.624 67.350,224.597 71.608,224.637 76.620 L 224.710 85.733 224.772 76.420 L 224.835 67.107 225.631 67.107 L 226.427 67.107 226.357 76.418 L 226.288 85.728 225.495 85.898 C 224.732 86.061,224.728 86.068,225.397 86.098 C 226.681 86.156,226.696 86.033,226.622 76.191 L 226.552 66.975 225.692 66.892 C 225.158 66.841,224.780 66.942,224.697 67.158 M228.471 67.030 C 228.799 67.093,229.275 67.090,229.528 67.024 C 229.780 66.958,229.511 66.906,228.930 66.909 C 228.349 66.912,228.142 66.966,228.471 67.030 M231.567 67.158 C 231.493 67.349,231.464 71.667,231.502 76.752 L 231.572 85.997 232.255 86.077 C 233.545 86.227,233.565 86.062,233.491 76.191 L 233.421 66.975 232.561 66.892 C 232.027 66.841,231.650 66.942,231.567 67.158 M235.063 67.006 C 234.959 67.110,234.875 71.394,234.875 76.525 L 234.875 85.855 235.538 86.022 C 236.998 86.388,237.001 86.364,236.925 76.253 L 236.856 66.975 236.054 66.896 C 235.613 66.853,235.167 66.903,235.063 67.006 M238.372 76.404 L 238.441 85.997 239.366 86.032 L 240.291 86.066 239.432 85.949 L 238.573 85.832 238.573 76.469 L 238.573 67.107 239.363 67.107 L 240.152 67.107 240.226 76.354 L 240.301 85.601 240.296 76.288 L 240.291 66.975 239.297 66.893 L 238.302 66.811 238.372 76.404 M241.870 67.158 C 241.797 67.350,241.770 71.608,241.810 76.620 L 241.883 85.733 241.945 76.420 L 242.008 67.107 242.804 67.107 L 243.600 67.107 243.530 76.418 L 243.461 85.728 242.668 85.898 C 241.905 86.061,241.901 86.068,242.570 86.098 C 243.854 86.156,243.869 86.033,243.795 76.191 L 243.725 66.975 242.865 66.892 C 242.331 66.841,241.953 66.942,241.870 67.158 M135.007 76.504 L 135.007 85.900 134.280 85.817 L 133.554 85.733 133.484 76.420 L 133.415 67.107 134.211 67.107 L 135.007 67.107 135.007 76.504 M147.424 76.354 L 147.424 85.601 146.764 85.601 L 146.103 85.601 146.103 76.354 L 146.103 67.107 146.764 67.107 L 147.424 67.107 147.424 76.354 M164.597 76.354 L 164.597 85.601 163.937 85.601 L 163.276 85.601 163.276 76.354 L 163.276 67.107 163.937 67.107 L 164.597 67.107 164.597 76.354 M184.085 76.420 L 184.016 85.733 183.355 85.733 L 182.695 85.733 182.625 76.420 L 182.556 67.107 183.355 67.107 L 184.155 67.107 184.085 76.420 M200.000 76.354 L 200.000 85.601 199.339 85.601 L 198.679 85.601 198.679 76.354 L 198.679 67.107 199.339 67.107 L 200.000 67.107 200.000 76.354 M210.304 76.354 L 210.304 85.601 209.643 85.601 L 208.983 85.601 208.983 76.354 L 208.983 67.107 209.643 67.107 L 210.304 67.107 210.304 76.354 M233.227 76.420 L 233.157 85.733 232.431 85.817 L 231.704 85.900 231.704 76.504 L 231.704 67.107 232.500 67.107 L 233.296 67.107 233.227 76.420 M236.661 76.420 L 236.592 85.733 235.931 85.733 L 235.271 85.733 235.201 76.420 L 235.132 67.107 235.931 67.107 L 236.731 67.107 236.661 76.420 M314.795 68.164 C 314.462 68.307,314.413 68.391,314.663 68.391 C 314.881 68.391,315.297 68.289,315.588 68.164 C 315.921 68.021,315.970 67.937,315.720 67.937 C 315.502 67.937,315.086 68.039,314.795 68.164 M290.640 72.523 C 290.640 72.668,290.810 73.085,291.017 73.448 C 291.225 73.811,291.395 73.989,291.395 73.844 C 291.395 73.699,291.225 73.283,291.017 72.919 C 290.810 72.556,290.640 72.378,290.640 72.523 M336.450 77.741 L 335.139 79.128 336.526 77.817 C 337.289 77.096,337.913 76.472,337.913 76.430 C 337.913 76.233,337.668 76.452,336.450 77.741 M295.485 79.987 C 296.410 80.971,296.479 81.136,296.145 81.560 C 295.806 81.993,295.814 82.002,296.235 81.672 C 296.904 81.147,296.786 80.824,295.552 79.801 L 294.452 78.888 295.485 79.987 M289.300 85.733 C 288.646 86.083,288.205 86.375,288.320 86.382 C 288.600 86.398,290.621 85.360,290.621 85.199 C 290.621 85.024,290.632 85.020,289.300 85.733 M153.173 85.788 C 153.502 85.851,153.978 85.849,154.230 85.783 C 154.483 85.716,154.214 85.665,153.633 85.668 C 153.052 85.671,152.845 85.725,153.173 85.788 M205.749 85.788 C 206.078 85.851,206.554 85.849,206.806 85.783 C 207.059 85.716,206.790 85.665,206.209 85.668 C 205.627 85.671,205.421 85.725,205.749 85.788 M228.178 85.931 C 228.246 86.040,228.584 86.129,228.930 86.129 C 229.276 86.129,229.614 86.040,229.682 85.931 C 229.749 85.822,229.411 85.733,228.930 85.733 C 228.449 85.733,228.111 85.822,228.178 85.931 M319.815 85.865 C 319.103 86.046,319.090 86.067,319.683 86.072 C 320.046 86.075,320.641 85.982,321.004 85.865 C 321.892 85.581,320.933 85.581,319.815 85.865 M126.882 86.047 C 127.137 86.114,127.553 86.114,127.807 86.047 C 128.061 85.981,127.853 85.927,127.345 85.927 C 126.836 85.927,126.628 85.981,126.882 86.047 M308.928 86.854 C 309.915 86.905,311.460 86.905,312.362 86.853 C 313.265 86.802,312.457 86.760,310.568 86.761 C 308.679 86.761,307.941 86.803,308.928 86.854 M272.787 90.885 C 272.080 91.065,272.066 91.087,272.655 91.087 C 273.018 91.087,273.672 90.996,274.108 90.885 C 274.815 90.705,274.830 90.683,274.240 90.683 C 273.877 90.683,273.223 90.774,272.787 90.885 M270.343 91.331 C 270.598 91.398,271.014 91.398,271.268 91.331 C 271.522 91.265,271.314 91.211,270.806 91.211 C 270.297 91.211,270.089 91.265,270.343 91.331 M137.583 91.876 C 161.159 91.913,199.739 91.913,223.316 91.876 C 246.892 91.839,227.602 91.808,180.449 91.808 C 133.296 91.808,114.006 91.839,137.583 91.876 M301.232 93.670 C 300.789 94.642,300.874 94.849,301.352 93.966 C 301.576 93.554,301.709 93.167,301.649 93.106 C 301.588 93.046,301.401 93.300,301.232 93.670 M94.424 99.472 C 94.424 101.506,94.466 102.303,94.516 101.243 C 94.566 100.184,94.566 98.519,94.515 97.545 C 94.465 96.570,94.424 97.437,94.424 99.472 M224.422 101.519 L 223.646 102.378 224.569 101.585 C 225.077 101.149,225.543 100.763,225.604 100.727 C 225.665 100.690,225.599 100.661,225.457 100.661 C 225.314 100.661,224.849 101.047,224.422 101.519 M280.845 103.435 C 280.204 104.089,279.738 104.624,279.811 104.624 C 279.883 104.624,280.468 104.089,281.110 103.435 C 281.751 102.781,282.217 102.246,282.144 102.246 C 282.072 102.246,281.487 102.781,280.845 103.435 M117.359 103.152 C 116.132 104.019,115.959 104.267,116.995 103.674 C 117.479 103.397,117.998 103.022,118.150 102.840 C 118.541 102.373,118.358 102.445,117.359 103.152 M119.551 103.567 C 120.118 104.148,120.642 104.624,120.715 104.624 C 120.788 104.624,120.383 104.148,119.815 103.567 C 119.247 102.985,118.724 102.510,118.651 102.510 C 118.578 102.510,118.983 102.985,119.551 103.567 M282.873 103.059 C 283.200 103.456,284.808 104.468,284.808 104.277 C 284.808 104.216,284.303 103.832,283.686 103.425 C 283.068 103.017,282.702 102.853,282.873 103.059 M296.037 104.359 C 295.812 104.795,295.687 105.152,295.759 105.152 C 295.832 105.152,296.076 104.795,296.301 104.359 C 296.527 103.923,296.652 103.567,296.579 103.567 C 296.506 103.567,296.262 103.923,296.037 104.359 M218.230 105.548 C 217.576 105.898,217.135 106.190,217.250 106.197 C 217.530 106.213,219.551 105.175,219.551 105.014 C 219.551 104.839,219.562 104.835,218.230 105.548 M231.968 105.372 C 232.186 105.506,232.662 105.696,233.025 105.793 C 233.484 105.916,233.565 105.895,233.289 105.725 C 233.071 105.590,232.596 105.401,232.232 105.303 C 231.773 105.181,231.693 105.201,231.968 105.372 M277.675 105.680 C 277.166 105.959,276.845 106.192,276.962 106.198 C 277.242 106.212,278.732 105.437,278.732 105.277 C 278.732 105.104,278.716 105.110,277.675 105.680 M288.111 105.782 C 288.547 105.981,289.201 106.216,289.564 106.305 C 290.095 106.436,290.069 106.396,289.432 106.107 C 288.996 105.908,288.342 105.673,287.979 105.584 C 287.448 105.453,287.474 105.493,288.111 105.782 M130.119 108.196 C 130.845 108.383,131.797 108.536,132.232 108.535 C 132.668 108.535,132.252 108.375,131.308 108.181 C 129.146 107.735,128.364 107.745,130.119 108.196 M209.775 108.210 L 208.322 108.567 209.612 108.423 C 210.322 108.344,211.154 108.178,211.462 108.053 C 212.280 107.723,211.444 107.800,209.775 108.210 M100.859 108.245 C 101.186 108.308,101.721 108.308,102.048 108.245 C 102.375 108.182,102.107 108.130,101.453 108.130 C 100.799 108.130,100.532 108.182,100.859 108.245 M156.473 108.240 C 156.727 108.307,157.143 108.307,157.398 108.240 C 157.652 108.174,157.444 108.119,156.935 108.119 C 156.427 108.119,156.219 108.174,156.473 108.240 M190.225 108.322 C 190.588 108.439,191.182 108.532,191.546 108.529 C 192.139 108.525,192.125 108.503,191.413 108.322 C 190.296 108.038,189.337 108.038,190.225 108.322 M95.971 108.517 C 96.661 108.571,97.791 108.571,98.481 108.517 C 99.171 108.462,98.606 108.418,97.226 108.418 C 95.845 108.418,95.281 108.462,95.971 108.517 M154.494 108.509 C 154.823 108.572,155.299 108.570,155.551 108.504 C 155.804 108.438,155.535 108.386,154.954 108.389 C 154.373 108.392,154.166 108.446,154.494 108.509 M244.980 108.504 C 245.234 108.571,245.651 108.571,245.905 108.504 C 246.159 108.438,245.951 108.384,245.443 108.384 C 244.934 108.384,244.726 108.438,244.980 108.504 M133.623 108.773 C 133.951 108.837,134.427 108.834,134.679 108.768 C 134.932 108.702,134.663 108.650,134.082 108.653 C 133.501 108.656,133.294 108.710,133.623 108.773 M152.114 108.773 C 152.441 108.836,152.976 108.836,153.303 108.773 C 153.629 108.710,153.362 108.658,152.708 108.658 C 152.054 108.658,151.787 108.710,152.114 108.773 M192.668 108.769 C 192.923 108.835,193.339 108.835,193.593 108.769 C 193.847 108.702,193.639 108.648,193.131 108.648 C 192.622 108.648,192.414 108.702,192.668 108.769 M247.226 108.773 C 247.553 108.836,248.088 108.836,248.415 108.773 C 248.742 108.710,248.474 108.658,247.820 108.658 C 247.166 108.658,246.899 108.710,247.226 108.773 M266.116 108.769 C 266.371 108.835,266.787 108.835,267.041 108.769 C 267.295 108.702,267.087 108.648,266.579 108.648 C 266.070 108.648,265.862 108.702,266.116 108.769 M136.000 109.038 C 136.329 109.101,136.805 109.098,137.057 109.032 C 137.310 108.966,137.041 108.914,136.460 108.917 C 135.878 108.920,135.672 108.974,136.000 109.038 M149.475 109.038 C 149.803 109.101,150.279 109.098,150.531 109.032 C 150.784 108.966,150.515 108.914,149.934 108.917 C 149.353 108.920,149.146 108.974,149.475 109.038 M194.782 109.033 C 195.036 109.099,195.452 109.099,195.707 109.033 C 195.961 108.966,195.753 108.912,195.244 108.912 C 194.736 108.912,194.528 108.966,194.782 109.033 M204.822 109.033 C 205.076 109.099,205.492 109.099,205.746 109.033 C 206.001 108.966,205.793 108.912,205.284 108.912 C 204.775 108.912,204.567 108.966,204.822 109.033 M250.132 109.037 C 250.459 109.100,250.994 109.100,251.321 109.037 C 251.648 108.974,251.380 108.923,250.727 108.923 C 250.073 108.923,249.805 108.974,250.132 109.037 M263.609 109.038 C 263.938 109.101,264.414 109.098,264.666 109.032 C 264.919 108.966,264.650 108.914,264.069 108.917 C 263.487 108.920,263.281 108.974,263.609 109.038 M141.687 109.310 C 142.528 109.363,143.836 109.363,144.594 109.309 C 145.351 109.256,144.663 109.213,143.065 109.214 C 141.466 109.214,140.846 109.258,141.687 109.310 M199.273 109.307 C 199.818 109.364,200.710 109.364,201.255 109.307 C 201.800 109.250,201.354 109.204,200.264 109.204 C 199.174 109.204,198.729 109.250,199.273 109.307 M256.209 109.310 C 256.972 109.363,258.220 109.363,258.983 109.310 C 259.746 109.256,259.122 109.213,257.596 109.213 C 256.070 109.213,255.446 109.256,256.209 109.310 M95.376 112.187 C 95.376 112.839,96.470 117.357,96.597 117.230 C 96.658 117.169,96.540 116.358,96.334 115.429 C 96.129 114.499,95.892 113.352,95.807 112.880 L 95.654 112.021 193.555 112.021 L 291.457 112.021 290.856 112.993 C 290.526 113.527,290.385 113.884,290.544 113.786 C 290.702 113.688,291.078 113.192,291.378 112.682 L 291.924 111.757 193.650 111.757 C 103.082 111.757,95.376 111.791,95.376 112.187 M289.097 115.654 C 288.240 116.892,288.084 117.220,288.523 116.863 C 288.941 116.522,289.936 114.927,289.729 114.927 C 289.658 114.927,289.374 115.254,289.097 115.654 M286.083 119.881 C 285.468 120.717,284.245 122.271,283.367 123.335 C 280.751 126.503,280.507 126.816,280.651 126.816 C 280.893 126.816,286.586 119.842,287.282 118.692 C 287.828 117.790,287.071 118.541,286.083 119.881 M97.545 121.004 C 97.618 121.222,97.888 122.054,98.145 122.853 C 98.832 124.990,99.125 125.073,98.491 122.951 C 98.193 121.953,97.828 121.017,97.680 120.872 C 97.500 120.694,97.456 120.738,97.545 121.004 M166.393 126.778 C 166.667 126.951,166.653 127.063,166.327 127.334 C 165.509 128.013,166.300 130.251,167.358 130.251 C 167.477 130.251,167.261 130.005,166.878 129.703 C 166.092 129.085,165.937 127.877,166.576 127.347 C 166.998 126.997,166.879 126.550,166.365 126.556 C 166.143 126.559,166.152 126.625,166.393 126.778 M100.521 128.798 C 100.904 129.670,101.339 130.502,101.488 130.647 C 101.638 130.793,101.446 130.198,101.064 129.326 C 100.681 128.454,100.246 127.622,100.097 127.477 C 99.948 127.332,100.139 127.926,100.521 128.798 M278.996 128.534 C 278.503 129.042,278.212 129.450,278.350 129.439 C 278.588 129.421,280.220 127.609,279.999 127.609 C 279.940 127.609,279.489 128.025,278.996 128.534 M161.276 128.789 C 161.041 129.148,160.890 129.548,160.939 129.679 C 160.989 129.810,161.223 129.517,161.459 129.027 C 161.964 127.980,161.879 127.869,161.276 128.789 M169.689 131.044 C 169.689 131.697,169.740 131.965,169.803 131.638 C 169.866 131.311,169.866 130.776,169.803 130.449 C 169.740 130.122,169.689 130.390,169.689 131.044 M274.838 132.837 C 273.274 134.404,270.984 136.617,269.749 137.754 C 268.430 138.969,268.101 139.347,268.951 138.670 C 270.632 137.330,278.166 130.009,277.876 129.996 C 277.768 129.991,276.401 131.269,274.838 132.837 M160.747 131.397 C 160.797 132.100,160.988 132.813,161.171 132.982 C 161.428 133.219,161.459 133.210,161.310 132.946 C 161.202 132.757,161.011 132.043,160.885 131.361 L 160.655 130.119 160.747 131.397 M102.998 133.592 C 103.836 135.210,104.436 135.813,103.693 134.290 C 103.323 133.533,102.897 132.837,102.746 132.743 C 102.595 132.650,102.708 133.032,102.998 133.592 M168.559 134.016 C 168.170 134.547,168.107 134.732,168.392 134.500 C 168.825 134.148,169.480 133.157,169.280 133.157 C 169.229 133.157,168.905 133.544,168.559 134.016 M104.522 136.129 C 105.076 137.075,106.773 139.498,106.881 139.498 C 106.950 139.498,106.452 138.666,105.776 137.649 C 105.099 136.631,104.497 135.799,104.437 135.799 C 104.377 135.799,104.415 135.948,104.522 136.129 M148.613 138.583 C 147.160 138.913,146.209 139.192,146.499 139.203 C 147.116 139.226,151.671 138.246,151.869 138.047 C 152.082 137.835,151.441 137.940,148.613 138.583 M107.438 140.267 L 108.006 140.884 117.609 141.050 C 127.408 141.219,135.378 141.028,137.598 140.571 C 138.748 140.335,138.715 140.327,137.135 140.467 C 129.523 141.143,108.372 140.891,107.430 140.112 C 106.876 139.655,106.876 139.657,107.438 140.267 M156.792 140.045 C 156.696 140.200,156.362 140.431,156.050 140.557 C 155.662 140.713,155.616 140.791,155.904 140.802 C 156.135 140.811,156.540 140.581,156.803 140.291 C 157.066 140.000,157.211 139.762,157.124 139.762 C 157.037 139.762,156.888 139.889,156.792 140.045 M265.757 141.041 C 265.119 141.599,263.349 142.962,261.823 144.070 C 260.297 145.179,258.752 146.334,258.388 146.638 L 257.728 147.190 258.520 146.722 C 259.624 146.070,266.428 140.923,266.837 140.430 C 267.417 139.730,266.959 139.990,265.757 141.041 M145.046 143.197 C 144.155 143.384,144.150 143.392,144.914 143.395 C 145.350 143.397,146.063 143.308,146.499 143.197 C 147.596 142.918,146.372 142.918,145.046 143.197 M141.744 143.725 C 140.645 144.005,141.726 144.017,143.065 143.740 C 143.953 143.557,143.995 143.522,143.329 143.523 C 142.893 143.523,142.180 143.614,141.744 143.725 M110.436 144.730 C 110.436 144.847,110.882 145.352,111.426 145.853 C 112.282 146.640,112.318 146.654,111.690 145.956 C 111.291 145.513,110.964 145.007,110.964 144.834 C 110.964 144.660,110.845 144.518,110.700 144.518 C 110.555 144.518,110.436 144.613,110.436 144.730 M115.134 144.977 C 115.902 145.031,117.091 145.030,117.776 144.976 C 118.462 144.922,117.834 144.878,116.380 144.879 C 114.927 144.879,114.367 144.924,115.134 144.977 M127.543 144.975 C 128.161 145.031,129.171 145.031,129.789 144.975 C 130.406 144.920,129.901 144.874,128.666 144.874 C 127.431 144.874,126.925 144.920,127.543 144.975 M113.841 148.026 C 114.291 148.597,117.834 151.754,117.834 151.584 C 117.834 151.517,116.853 150.584,115.654 149.511 C 114.455 148.438,113.639 147.770,113.841 148.026 M255.610 148.386 C 254.139 149.361,253.817 149.745,255.086 149.011 C 256.108 148.419,257.050 147.688,256.789 147.688 C 256.719 147.688,256.188 148.002,255.610 148.386 M251.585 150.866 C 250.822 151.304,250.198 151.721,250.198 151.794 C 250.198 151.967,252.029 151.017,252.708 150.491 C 253.534 149.853,253.100 149.998,251.585 150.866 M118.177 151.830 C 118.283 152.001,118.868 152.536,119.478 153.019 C 120.089 153.502,120.501 153.757,120.396 153.586 C 120.290 153.415,119.705 152.880,119.095 152.397 C 118.485 151.914,118.072 151.659,118.177 151.830 M246.860 153.496 C 246.259 153.763,245.682 154.119,245.578 154.288 C 245.474 154.456,245.996 154.286,246.737 153.910 C 248.609 152.962,248.693 152.680,246.860 153.496 M122.457 155.212 C 123.313 155.960,124.174 156.504,124.174 156.297 C 124.174 156.226,123.610 155.797,122.919 155.344 C 121.855 154.645,121.785 154.625,122.457 155.212 M242.060 155.930 C 241.144 156.371,240.448 156.785,240.514 156.850 C 240.580 156.916,241.448 156.552,242.443 156.041 C 244.656 154.905,244.365 154.821,242.060 155.930 M126.420 157.857 C 127.010 158.348,128.684 159.253,128.269 158.857 C 128.124 158.718,127.530 158.338,126.948 158.012 C 126.367 157.685,126.129 157.616,126.420 157.857 M237.913 157.867 C 237.477 158.070,236.492 158.495,235.725 158.811 C 234.958 159.127,234.376 159.431,234.431 159.486 C 234.546 159.602,239.102 157.732,239.102 157.569 C 239.102 157.391,238.740 157.481,237.913 157.867 M130.515 160.236 C 130.515 160.414,133.189 161.747,133.308 161.628 C 133.362 161.574,132.756 161.210,131.961 160.820 C 131.166 160.430,130.515 160.168,130.515 160.236 M231.308 160.520 C 228.780 161.422,227.980 161.754,228.085 161.859 C 228.210 161.984,232.761 160.382,232.761 160.213 C 232.761 160.047,232.451 160.112,231.308 160.520 M136.724 163.286 C 137.596 163.702,138.428 164.039,138.573 164.035 C 138.913 164.026,135.755 162.523,135.403 162.526 C 135.258 162.528,135.852 162.869,136.724 163.286 M224.042 163.019 C 223.679 163.146,222.689 163.445,221.843 163.683 C 220.997 163.922,220.363 164.176,220.434 164.248 C 220.582 164.395,225.099 163.062,225.099 162.871 C 225.099 162.706,224.835 162.743,224.042 163.019 M142.536 165.531 C 142.972 165.731,143.507 165.891,143.725 165.886 C 143.943 165.882,143.705 165.718,143.197 165.522 C 141.991 165.057,141.516 165.064,142.536 165.531 M215.456 165.390 C 215.020 165.510,213.496 165.867,212.069 166.185 C 210.642 166.503,209.527 166.814,209.590 166.877 C 209.731 167.018,215.465 165.791,216.380 165.424 C 217.171 165.107,216.570 165.085,215.456 165.390 M152.312 168.170 C 153.038 168.357,153.930 168.509,154.293 168.508 C 154.657 168.507,154.240 168.345,153.369 168.148 C 151.371 167.698,150.540 167.715,152.312 168.170 M199.604 168.336 C 195.342 168.912,192.833 169.403,195.112 169.213 C 197.665 169.001,203.308 168.225,203.831 168.014 L 204.359 167.801 203.831 167.818 C 203.540 167.827,201.638 168.060,199.604 168.336 M191.347 169.535 C 191.602 169.601,192.018 169.601,192.272 169.535 C 192.526 169.468,192.318 169.414,191.810 169.414 C 191.301 169.414,191.093 169.468,191.347 169.535 M187.784 169.804 C 188.112 169.867,188.588 169.865,188.841 169.798 C 189.093 169.732,188.824 169.681,188.243 169.684 C 187.662 169.686,187.455 169.741,187.784 169.804 M167.934 170.196 C 169.205 170.424,181.068 170.413,183.223 170.183 C 184.095 170.089,180.782 170.013,175.860 170.013 C 170.939 170.013,167.372 170.096,167.934 170.196 " stroke="none" fill="#2a8ba3" fill-rule="evenodd"></path></g></svg>