<svg width="2499" height="2487" viewBox="0 0 2499 2487" fill="none" xmlns="http://www.w3.org/2000/svg">
<path d="M214.915 83.4138L0 896.093C337.68 702.528 788.873 507.982 1356.67 311.69C1720.51 186.095 2072.14 80.4921 2411.78 -6.08618L214.915 83.4138ZM2498.44 186.283C2169.18 253.649 1873.91 332.918 1614.03 422.479C1316.54 525.354 1077.04 629.345 895.906 735.391C714.535 839.516 630.281 923.743 642.08 988.623C652.718 1045.91 728.676 1071.92 870.258 1066.55C943.123 1064.64 1061.12 1053.61 1224.9 1033.67C1388.68 1013.73 1600.15 984.902 1859.02 947.229C2115.6 910.765 2328.14 886.097 2498.44 871.748V186.27V186.283ZM1767.04 1330.74C1694.17 1332.01 1593.85 1339.68 1465.45 1352.66C1336.61 1365.96 1177.2 1385.1 986.113 1412.31C689.54 1456 442.693 1490 246.75 1512.15C152.766 1523.07 71.0982 1529.86 0 1535.29V2267.02C389.161 2188.69 741.207 2095.33 1055.09 1986.99C1363.47 1880.63 1600.48 1776.86 1767.04 1676.52C1933.83 1576.18 2011.71 1491.06 1998.75 1422.05C1987.88 1362.56 1909.78 1332.33 1767.04 1330.74ZM2498.44 1587.63C2156.47 1772.06 1732.02 1952.94 1224.9 2128.22C752.753 2291.19 344.912 2407.8 0 2480.08V2486.17L2354 2313L2498.44 1587.64V1587.63ZM104.359 1741.06C105.627 1740.8 106.603 1741.05 107.901 1741.06C114.352 1741.36 121.243 1744.15 125.586 1750.8C132.222 1760.21 133.94 1775.27 130.007 1787.32C125.732 1801.2 114.382 1809.57 103.471 1806.8C91.4371 1804.4 82.107 1788.13 83.1317 1771.5C83.4831 1755.86 93.1255 1743.01 104.359 1741.06ZM192.8 1741.06C198.441 1741.37 203.682 1742.95 207.829 1748.37C215.676 1757.24 218.76 1773.18 214.915 1786.11C211.304 1799.41 201.427 1809.28 191.033 1808.03C182.103 1807.52 173.32 1799.86 169.806 1788.55C164.946 1773.83 168.908 1753.94 179.536 1745.93C183.54 1742.63 188.135 1740.95 192.8 1741.06ZM107.892 1956.57C118.432 1956.1 127.85 1966.31 130.895 1979.69C134.116 1994.59 128.982 2013.32 118.51 2019.86C107.989 2027.15 94.1698 2022.54 87.5528 2008.91C80.8187 1995.61 81.7556 1975.55 91.0955 1965.09C95.7218 1959.44 101.721 1956.4 107.901 1956.57H107.892ZM192.8 1956.57C201.183 1955.94 208.63 1963.23 213.139 1972.4C219.648 1986.36 216.925 2006.5 206.951 2016.22C196.947 2026.7 181.313 2024.94 173.339 2011.35C165.112 1997.86 165.649 1974.87 175.994 1963.86C180.483 1958.76 186.944 1956.31 192.8 1956.57Z" fill="#809CC8"/>
</svg>
