<svg width="1217" height="1003" viewBox="0 0 1217 1003" fill="none" xmlns="http://www.w3.org/2000/svg">
<g id="uml-tools19 1">
<g id="Group">
<path id="Vector" d="M503.255 81.0836C507.833 103.009 511.995 125.41 513.243 131.13L515.324 142.092H392.559H269.794V501.948V861.326L238.999 900.887C221.937 922.335 208.204 940.924 209.036 941.4C209.452 942.353 221.104 938.54 234.421 933.297C268.13 919.952 269.794 920.428 269.794 942.83V961.895H638.089H1006.38V551.994C1006.38 282.221 1005.13 142.092 1002.22 141.616C1000.14 141.139 996.396 140.186 993.899 139.709C991.818 139.232 901.097 138.279 792.897 137.803L596.057 137.326L546.951 89.663C519.902 63.4483 497.429 42 496.597 42C496.181 42 499.094 59.6353 503.255 81.0836ZM574.834 167.354L590.647 189.755H779.58H968.93V554.377V918.999H638.089H307.248V554.377V189.755H436.255C507.417 189.755 565.262 188.802 565.262 187.372C565.262 185.466 561.933 177.839 558.188 169.26C554.026 160.681 547.784 145.429 543.622 134.943L536.132 115.878L547.368 130.653C554.026 138.756 566.094 155.438 574.834 167.354Z" fill="black"/>
<path id="Vector_2" d="M353.025 535.788V834.159L368.838 823.196C377.161 817 412.534 791.738 446.659 767.43C481.199 742.646 556.107 689.263 613.12 648.273C670.549 607.759 719.655 572.012 722.568 568.676C727.978 562.956 720.071 541.985 627.269 324.165L590.231 237.418H471.628H353.025V535.788Z" fill="black"/>
<path id="Vector_3" d="M621.859 243.138C633.095 265.063 717.158 401.379 768.761 480.499C781.245 500.041 792.065 516.723 792.481 517.676C792.481 518.153 822.444 502.901 859.066 483.836L925.234 449.042V344.66V239.801L772.09 238.371C649.741 237.418 619.362 238.371 621.859 243.138Z" fill="black"/>
<path id="Vector_4" d="M873.631 549.134C849.494 568.199 829.103 586.311 828.686 588.694C827.854 591.554 843.668 632.068 864.059 679.254C884.451 725.964 905.675 776.01 910.668 790.309C916.078 804.607 921.905 818.43 923.985 820.813C925.65 823.673 927.315 755.515 927.315 669.721C927.315 548.181 926.066 513.863 922.321 514.34C919.408 514.34 897.352 530.069 873.631 549.134Z" fill="black"/>
<path id="Vector_5" d="M681.785 674.488C641.834 696.889 590.231 725.487 567.343 737.879C376.745 842.261 353.025 856.56 353.025 866.093C353.025 876.102 353.441 876.102 632.263 876.102H911.085L901.929 860.373C867.389 805.084 767.096 648.273 761.686 642.077C755.028 634.451 749.618 636.834 681.785 674.488Z" fill="black"/>
</g>
</g>
</svg>
